<mxfile host="app.diagrams.net" agent="Mozilla/5.0 (Windows NT 10.0; Win64; x64) AppleWebKit/537.36 (KHTML, like Gecko) Chrome/127.0.0.0 Safari/537.36" version="24.7.7">
  <diagram name="Page-1" id="_S5qcF7wm5AVC0lFR9cB">
    <mxGraphModel dx="1900" dy="583" grid="1" gridSize="10" guides="1" tooltips="1" connect="1" arrows="1" fold="1" page="1" pageScale="1" pageWidth="850" pageHeight="1100" math="0" shadow="0">
      <root>
        <mxCell id="0" />
        <mxCell id="1" parent="0" />
        <mxCell id="fQr-KQXvRKtP9xT1wymy-3" style="edgeStyle=orthogonalEdgeStyle;rounded=0;orthogonalLoop=1;jettySize=auto;html=1;exitX=0.5;exitY=0;exitDx=0;exitDy=0;exitPerimeter=0;" parent="1" source="fQr-KQXvRKtP9xT1wymy-1" target="fQr-KQXvRKtP9xT1wymy-2" edge="1">
          <mxGeometry relative="1" as="geometry">
            <mxPoint y="230" as="sourcePoint" />
          </mxGeometry>
        </mxCell>
        <mxCell id="fQr-KQXvRKtP9xT1wymy-1" value="" style="sketch=0;aspect=fixed;pointerEvents=1;shadow=0;dashed=0;html=1;strokeColor=none;labelPosition=center;verticalLabelPosition=bottom;verticalAlign=top;align=center;fillColor=#00188D;shape=mxgraph.azure.laptop" parent="1" vertex="1">
          <mxGeometry x="-100" y="250" width="200" height="120" as="geometry" />
        </mxCell>
        <mxCell id="fQr-KQXvRKtP9xT1wymy-2" value="" style="shape=image;html=1;verticalAlign=top;verticalLabelPosition=bottom;labelBackgroundColor=#ffffff;imageAspect=0;aspect=fixed;image=https://cdn3.iconfinder.com/data/icons/brands-applications/512/SVN_B-128.png" parent="1" vertex="1">
          <mxGeometry x="166" y="20" width="128" height="128" as="geometry" />
        </mxCell>
        <mxCell id="fQr-KQXvRKtP9xT1wymy-6" style="edgeStyle=orthogonalEdgeStyle;rounded=0;orthogonalLoop=1;jettySize=auto;html=1;" parent="1" source="fQr-KQXvRKtP9xT1wymy-4" edge="1">
          <mxGeometry relative="1" as="geometry">
            <mxPoint x="230" y="150" as="targetPoint" />
          </mxGeometry>
        </mxCell>
        <mxCell id="fQr-KQXvRKtP9xT1wymy-4" value="" style="sketch=0;aspect=fixed;pointerEvents=1;shadow=0;dashed=0;html=1;strokeColor=none;labelPosition=center;verticalLabelPosition=bottom;verticalAlign=top;align=center;fillColor=#00188D;shape=mxgraph.azure.laptop" parent="1" vertex="1">
          <mxGeometry x="130" y="250" width="200" height="120" as="geometry" />
        </mxCell>
        <mxCell id="fQr-KQXvRKtP9xT1wymy-7" style="edgeStyle=orthogonalEdgeStyle;rounded=0;orthogonalLoop=1;jettySize=auto;html=1;" parent="1" source="fQr-KQXvRKtP9xT1wymy-5" edge="1">
          <mxGeometry relative="1" as="geometry">
            <mxPoint x="230" y="150" as="targetPoint" />
            <Array as="points">
              <mxPoint x="440" y="200" />
              <mxPoint x="231" y="200" />
            </Array>
          </mxGeometry>
        </mxCell>
        <mxCell id="fQr-KQXvRKtP9xT1wymy-5" value="" style="sketch=0;aspect=fixed;pointerEvents=1;shadow=0;dashed=0;html=1;strokeColor=none;labelPosition=center;verticalLabelPosition=bottom;verticalAlign=top;align=center;fillColor=#00188D;shape=mxgraph.azure.laptop" parent="1" vertex="1">
          <mxGeometry x="340" y="250" width="200" height="120" as="geometry" />
        </mxCell>
        <mxCell id="fQr-KQXvRKtP9xT1wymy-8" value="&lt;b&gt;Central/Remote Server&lt;/b&gt;" style="text;html=1;align=center;verticalAlign=middle;resizable=0;points=[];autosize=1;strokeColor=none;fillColor=none;" parent="1" vertex="1">
          <mxGeometry x="285" y="58" width="150" height="30" as="geometry" />
        </mxCell>
        <mxCell id="fQr-KQXvRKtP9xT1wymy-12" style="edgeStyle=orthogonalEdgeStyle;rounded=0;orthogonalLoop=1;jettySize=auto;html=1;entryX=0;entryY=0.5;entryDx=0;entryDy=0;" parent="1" source="fQr-KQXvRKtP9xT1wymy-9" target="fQr-KQXvRKtP9xT1wymy-11" edge="1">
          <mxGeometry relative="1" as="geometry" />
        </mxCell>
        <mxCell id="fQr-KQXvRKtP9xT1wymy-9" value="" style="sketch=0;aspect=fixed;pointerEvents=1;shadow=0;dashed=0;html=1;strokeColor=none;labelPosition=center;verticalLabelPosition=bottom;verticalAlign=top;align=center;fillColor=#00188D;shape=mxgraph.azure.laptop" parent="1" vertex="1">
          <mxGeometry x="-170" y="750" width="133.33" height="80" as="geometry" />
        </mxCell>
        <mxCell id="fQr-KQXvRKtP9xT1wymy-10" value="" style="verticalLabelPosition=bottom;html=1;verticalAlign=top;align=center;strokeColor=none;fillColor=#00BEF2;shape=mxgraph.azure.github_code;pointerEvents=1;" parent="1" vertex="1">
          <mxGeometry x="150" y="510" width="60" height="60" as="geometry" />
        </mxCell>
        <mxCell id="fQr-KQXvRKtP9xT1wymy-11" value="&lt;b&gt;Local Repo&lt;/b&gt;" style="rounded=1;whiteSpace=wrap;html=1;fillColor=#dae8fc;strokeColor=#6c8ebf;" parent="1" vertex="1">
          <mxGeometry x="-70" y="650" width="120" height="60" as="geometry" />
        </mxCell>
        <mxCell id="fQr-KQXvRKtP9xT1wymy-13" style="edgeStyle=orthogonalEdgeStyle;rounded=0;orthogonalLoop=1;jettySize=auto;html=1;entryX=0.02;entryY=0.4;entryDx=0;entryDy=0;entryPerimeter=0;" parent="1" source="fQr-KQXvRKtP9xT1wymy-11" target="fQr-KQXvRKtP9xT1wymy-10" edge="1">
          <mxGeometry relative="1" as="geometry">
            <Array as="points">
              <mxPoint x="10" y="534" />
            </Array>
          </mxGeometry>
        </mxCell>
        <mxCell id="fQr-KQXvRKtP9xT1wymy-16" style="edgeStyle=orthogonalEdgeStyle;rounded=0;orthogonalLoop=1;jettySize=auto;html=1;entryX=0;entryY=0.5;entryDx=0;entryDy=0;" parent="1" source="fQr-KQXvRKtP9xT1wymy-14" target="fQr-KQXvRKtP9xT1wymy-15" edge="1">
          <mxGeometry relative="1" as="geometry" />
        </mxCell>
        <mxCell id="fQr-KQXvRKtP9xT1wymy-14" value="" style="sketch=0;aspect=fixed;pointerEvents=1;shadow=0;dashed=0;html=1;strokeColor=none;labelPosition=center;verticalLabelPosition=bottom;verticalAlign=top;align=center;fillColor=#00188D;shape=mxgraph.azure.laptop" parent="1" vertex="1">
          <mxGeometry x="70" y="750" width="133.33" height="80" as="geometry" />
        </mxCell>
        <mxCell id="fQr-KQXvRKtP9xT1wymy-15" value="&lt;b&gt;Local Repo&lt;/b&gt;" style="rounded=1;whiteSpace=wrap;html=1;fillColor=#dae8fc;strokeColor=#6c8ebf;" parent="1" vertex="1">
          <mxGeometry x="130" y="650" width="120" height="60" as="geometry" />
        </mxCell>
        <mxCell id="fQr-KQXvRKtP9xT1wymy-17" style="edgeStyle=orthogonalEdgeStyle;rounded=0;orthogonalLoop=1;jettySize=auto;html=1;entryX=0.5;entryY=1;entryDx=0;entryDy=0;entryPerimeter=0;" parent="1" source="fQr-KQXvRKtP9xT1wymy-15" target="fQr-KQXvRKtP9xT1wymy-10" edge="1">
          <mxGeometry relative="1" as="geometry" />
        </mxCell>
        <mxCell id="fQr-KQXvRKtP9xT1wymy-20" style="edgeStyle=orthogonalEdgeStyle;rounded=0;orthogonalLoop=1;jettySize=auto;html=1;entryX=0;entryY=0.5;entryDx=0;entryDy=0;" parent="1" source="fQr-KQXvRKtP9xT1wymy-18" target="fQr-KQXvRKtP9xT1wymy-19" edge="1">
          <mxGeometry relative="1" as="geometry" />
        </mxCell>
        <mxCell id="fQr-KQXvRKtP9xT1wymy-18" value="" style="sketch=0;aspect=fixed;pointerEvents=1;shadow=0;dashed=0;html=1;strokeColor=none;labelPosition=center;verticalLabelPosition=bottom;verticalAlign=top;align=center;fillColor=#00188D;shape=mxgraph.azure.laptop" parent="1" vertex="1">
          <mxGeometry x="284.99999999999994" y="750" width="133.33" height="80" as="geometry" />
        </mxCell>
        <mxCell id="fQr-KQXvRKtP9xT1wymy-19" value="&lt;b&gt;Local Repo&lt;/b&gt;" style="rounded=1;whiteSpace=wrap;html=1;fillColor=#dae8fc;strokeColor=#6c8ebf;" parent="1" vertex="1">
          <mxGeometry x="365" y="650" width="120" height="60" as="geometry" />
        </mxCell>
        <mxCell id="fQr-KQXvRKtP9xT1wymy-21" style="edgeStyle=orthogonalEdgeStyle;rounded=0;orthogonalLoop=1;jettySize=auto;html=1;entryX=1;entryY=0.5;entryDx=0;entryDy=0;entryPerimeter=0;" parent="1" source="fQr-KQXvRKtP9xT1wymy-19" target="fQr-KQXvRKtP9xT1wymy-10" edge="1">
          <mxGeometry relative="1" as="geometry">
            <Array as="points">
              <mxPoint x="420" y="540" />
            </Array>
          </mxGeometry>
        </mxCell>
        <mxCell id="fQr-KQXvRKtP9xT1wymy-22" value="&lt;b&gt;Remote repo&lt;/b&gt;" style="text;html=1;align=center;verticalAlign=middle;resizable=0;points=[];autosize=1;strokeColor=none;fillColor=none;" parent="1" vertex="1">
          <mxGeometry x="140" y="470" width="100" height="30" as="geometry" />
        </mxCell>
        <mxCell id="fQr-KQXvRKtP9xT1wymy-23" value="" style="sketch=0;aspect=fixed;pointerEvents=1;shadow=0;dashed=0;html=1;strokeColor=none;labelPosition=center;verticalLabelPosition=bottom;verticalAlign=top;align=center;fillColor=#00188D;shape=mxgraph.azure.laptop" parent="1" vertex="1">
          <mxGeometry x="-220" y="930" width="549.99" height="330" as="geometry" />
        </mxCell>
        <mxCell id="fQr-KQXvRKtP9xT1wymy-26" style="edgeStyle=orthogonalEdgeStyle;rounded=0;orthogonalLoop=1;jettySize=auto;html=1;entryX=0;entryY=0.25;entryDx=0;entryDy=0;exitX=0.5;exitY=0;exitDx=0;exitDy=0;" parent="1" source="fQr-KQXvRKtP9xT1wymy-24" target="fQr-KQXvRKtP9xT1wymy-25" edge="1">
          <mxGeometry relative="1" as="geometry" />
        </mxCell>
        <mxCell id="fQr-KQXvRKtP9xT1wymy-24" value="" style="shape=image;verticalLabelPosition=bottom;labelBackgroundColor=default;verticalAlign=top;aspect=fixed;imageAspect=0;image=data:image/png,iVBORw0KGgoAAAANSUhEUgAAAQIAAADmCAYAAAA+7YtwAAAAAXNSR0IArs4c6QAAAARnQU1BAACxjwv8YQUAAAAJcEhZcwAADsMAAA7DAcdvqGQAAIDySURBVHhe7f0HuCXXeR2Irson39S3+3YA0I0MEIEIBEAChAhGEaQokZREkbRlUZYVrDH9zXzj53nzxh69Z0ljj2yP/FkOkjhDkRTFKBGMokgCBEnkQGQ0QqMDOsebTqr81tp1TnejASJQjXvPRdfq3vfUOaeqTtWu/a+9/r3/vbcVhmFO4MSUZdnzPjs+CT/p9Xi80GclSpR4dWBZ1mDrGIafvdDr0dTv92mrhXEPjf+FSOCFPhNOfBWO3y5RosTyYGjwwvHGP3x9Tup2u7Tb5xr7CxGCtqvVKhzHgW3bR09YokSJlYehTadpil6vB6vT6fCz4sNhGr7XqyACcF3XbJcoUeK1B/tEElASSygFQYBms1mSQIkSr3HYJ5LAMDUaDfi+P9itRIkSr2U8jwikBKQC1BZQokSJUwPPIYIhCagxsESJEqcOntNGMOwVKFGixKmFo4pAUONgiRKjipzFVAlK6tDimxwp36bmXzL4C8RFyrltDuLOg9CW4vAyzuVEGEWgVK/XBx+VKDGaiOmxRkx6TSwatGXTpOXGOuZVKYNFMqDK5avS8SbPks4/JA4ShNkucRRHFUHZRVhi1KF6PmSKBtspE3ILNit+N7Lg9ZUcpLGPNHWRWg4Jw0ZsWQVxyPwz7pzwDFIJJY7C2rt3b16pVKBUosQoI0d3UN+zpqc92zkrr5SKQIxgeYqbLbS/WMLhpk/S4MfaRQpAGkHaQTrBh8vXMjp2CGv37t15q9UqFUGJ0UdCi1dNzlreGP0gzJ2iwMA4AinfSDKozdvLSQI55AgINvdw9VdkIY+ixFFYu3btyicnJ8uxAyVGH8YXKF5iFtd8IAZk5rJr1fYO5YCT9PkBaYEkQMeB/8gKUg8J5YHaEpVq5oASA5g2gpIESqwE5FbCCl9JqqD4TDo2IAHU8giVvEcRQL/AYb1P1eAYEhC4v5SE3pALeECpCE6A6TUoUWIlwMrm4eRH4NqLfBOZpoAeUyfNMRumOLQY4VAHWMxr6OZ1ZFmDBFBn8ukiOOhSARwhc+z1C0VR4his7du352vWrBm8LVFihBHPGcm/aFWxL3Sxmx7AodCi0VvoJSl6/Z5xBaaaNUyx5j+NNf86Gv0YCUBxchGVQdekFKuoJfyhrCgBa9u2bfnMzMzgbYkSywO130nCKxqg2KSPT5dV72SuFpWrDP4Qjf/JI8Bdu3q4e888nuqmWKw0kNYbSHwHSbyAoLcT5441ce30GN7M9HqKgg1UAsYDztOi+7BGlnCe6x8Mf6vYKl5Mb8NR15mvxy7vKI7bXLEoiaDEskNtd1T0fA0xwfraptSnVSN2G0bO+7S+atTDLWkNn797Drfedg9271+A35hE7NCgKwHGp1dhYvUU/KCKOLUR123MJfOoZh1cPlnHz54xhhsofDfwd4IsR5RZPO8xyLAj/pZruhgVa5AhzmK6EDEqbkAhwr0zskmqDky+cN9hY2WVaaWTgbV169Z87dq1g7clSiw9hkTQUsO13tkp7VCD4NTcVyEhAD94ZBs++fBh3L3tAObm6QLYVXi1MbRDmmJO423UELCW96kEmizPdddXAxjSTLEHXbTsPs6tWbhu1STecnoTZ9ghGcZBx3FNW4OMOZBY4BvZu+VKoyT85yAnKdh867ueURUSBak5Nw+wbQSasYufrWRYzzzzTL5u3brB2xIllgM0/qwHxDRHGibdf0R5Hy7tLOr5uHnzfnz5yZ24fesBHG7H9Pd9uH6VBumiF/JYWqEduLAcC0G9ivE106g3xuBSHWSU/0kew4p7qGV9zND4N46P4eKxBBdP+ziz5WPCU9NDhixNYGVMTg2Juh95ZXIeyEmFR8A/tpWDP2NcGO1rfpzXbF5XMEoiKLH8oARHTE1g1Sj16RLoI9rV4XYfd23Zjy/evQP37E+wmGaU45psk2YoLc+k7SJMPkFG/99zHTRbLYyfcRqcCboOrNEtynmX7oDCEfskg24e4qx6HeeTBF7fynD5eIJzWynGfVq85VLuN4zhK/CI4kQfFQGMal/gh/QKTOIPFr4BlULRALFyURJBieVHSmvq9ZHXfboILo3PIgkAtz6zD5+5/3HcvydEv1eDU/NplPTRExo9Nbzvuqj4AcJeF/0uD6Bct6gA/FoN6889F41Va2j4OSJK+1yE4VkInQw9EkErDOBy/0k/wuvGUlw3beGyMR/rqCgaPt0E+gJWLIKigfM4M6DBWL8go2cSO8iDUFRuSQQlSvz9YEYKaxxQRS5Birmeg797ZD8+c8/TuGM/lULuoVFroUvpnmln+eapXAQbVd9Dr91G2u2bXgCrSpehFmDD1FqsGZ82vQOLXoY5O0afiqBCQpgieXR7VA98r1aJXqbGwCouGgc+sB64ejLCTDVHjT6AJ4OnCsjpWlgiAioSMUJGwspzuiO2gpfMbaxoWFu2bMnXr+fdlyixTNCIwnmmCVa6igT+xG1P4pP3bsejB1TjNun/0yBbCeJEZkkDJAlk3UWyBo3f82iWJAByg2tTovN9aNtotRpoTYyjtWoclfE6MidHh6qhu7gAi4qiVe0gtFYhwQyPo2lT5R+O5xFTQbxh0sd711XwxjU2plugo1AEIyLuIul3YdsOvEoNuRMYz0C9DyudC0oiKLHsoDnjEFNGRvjiLZvxtS378MBsgiSi+dkV0GNAJzrAPWiSboUqPGUNzZ3TCL4XwKETH/VTpD1J+RTVwMfY+acjOG2aYoJGG2cIkhxuZiOhakhrHuKFPhVFxtPT1WCVnsQ2Kjy8QcUR8f0cjX11JcH1qzJcevo4LqVaWM0rqJOsfJk/CSukLpgnMUwFTV6DmhVXLkoiKLHsiOir72p38YlbH8LXN89jd7/JWr1KN4CWaYWwNJFIX7qh6FUwfXkah6wWfrXrZ9TsiUMXwzH7+k6K1Rs3oLZ2GnHFQ+Twu9yBkzokBNd0FXa5T2YlPDrlOWjYJAA1ECqpL0CfyrYbJIuZPMSVLR9vXT+Bi1cBFAykgIiKIkSifVDneUoiKFHiJ0LSWfMA2DJq+fesStPMQ0p7NlaXZXjm0AL+2z078b3HtmN7h0Zrt1hbqyVek4+RALIUdqKziAQkws2B5ljTcq/T0tAtOgkWf8OhkU/MrMbE6euRBPwtkgevwPQeeLTcgOeJPLoX3Nfi8WYuI6oMDWbiVRqjVvugCKrD7ysknCna+aaGiwvGfVw46eGcMRsb6jnGSBRWFsNR8EHOa+bZNIsSecm0LaoPwlGvCD+HrZsmFIl0YuMif8vc1jI1OJREUOJVhUxAdODJGAaFPU8pzX0Xi2SJrfsW8Y0HtuKP7j9i9nwxyGTNZCI8jxksJxI4/pWwSA6ubaO2ZhrT52xE5sqsSRGap0D70dA0AKkgpeKYnwgSkH4npfvRsxxEcR8tK8Y59FCuIBlcsSrAprqNixR85Fjo0e2INaiBRl6QQNGsaKdq/OBvGfeB18FzWQODN391Gboe7bNMkwevbD1TYuShApaxtu6hQhktUa6W9og+eYbNB1N88t59+O+37TT7jhpqrLknYwuVhR5qYYypmhou63hqPsRXn9qLTzyyD596NsRDh3w82ffxLAlokSrGRR/1rIOAxGHzHIqN6DsBQhJgROWQ5NIgA/s3XDR4p+HVy4SSCEq8qlDRlgpWShK+o0yPrAoePdzHn9/yMD55904sWNPFzqMGhQ97Lqp0L+qeDZ+1vuVSHbhj2MNrvrfdwk3P2njjU0/ij3bMY3G/jfULHmrtDGm4SPJbNO0IagxVgJRHz4FCCDyVMTzZfZ5y3yQ1QVHLOaFq6RqUeFVh2giojO1M/fxgzVjB93el+L++dg/u299Dz2salrDixeKAF8FSuwb6DY2ADHyPrzn6YWSaJRy3Cseme0Nvp9MF1o8BB3l/rn0QV47n+KWZMbxt9RgaQUICSPn7dDH4+3ls8zheh/orh+D5NebSNFCSFAJXbR1Lj5IISry66NNSFJrrBziS+Lj5mXn86a1P4OEjCRZ7Ia0qQ6PqoRPKMF8cS00EESV8RL++JjVgq5bvI6P1q3fCoZvjODVTtWuGZDUuZnaMyOnwVrs4r+XgnWMNvLlVwxk+ycQjaziKmmLNL0Lh9VoaxORVTDxC0VMBOlC8B/34EqMkghKvLvqzNBYPO8M6vrVlAV+4ewse27+AxSSBZefGwFT0w1xhOS+OJVcEGa08d+BaOidr9UyKIDEjD3VPtoYnewGi+AB/2KdqqPL7AFmSwUeINX6CiyY9nDdexaVTOc5uJqgorkG9IIqO5LVm9BlyOzCkwMtetuCkkghKvLqg4ew40sc3nm7jK48fxt3PHkGSxjTOkL63Wsgt9CLWks7oEQHFCjzaK3+Np89Ya/MND7XVsq8xD/xcw6Xd/ABk+kALbtqCE3uKgEbf7sKrJag3bVzaSHBNC9gw1cIZ4zamuLcx+jgyYRGuQpV5rTztsuA4Z6VEiZOPx9suvvh4G1+6czMe3bYLbiWgBqbv7FUpu1mbKhhIw/tGEYotsENEdoIeDbRveYgthRbXySc1kgtr8Sgn142jko2hBo+1e4iO10ZU7aFWcVnj+9g5l+KWXSE++3SIv36mh5v3Ao/QYzogUeD5qPiaNi2GG6tZ8cXJ6dVCqQhK/HQYlFc1omngjioytYIXFRprSsvCQjfGH93VwbceeRaH9+9AL+wAjTGE9dVI+7QC9a9nIZycktt9aUVQnJ3pqCJgVarrOFERyK+foSI4m4qA/r1NX1+1e6EIbBo3NYLZvzjmJyF3SARuiDh1YVkVuE6tGJZMV9+JUwS84Zrr4AjlvZZSsN2I+4T8iYjuQ0SXITNkUc8D9LwGFqgkauE8VmfzuJjq4Op1Tbx+po5NdRcNBU5pVhRfE65ayDTpAa/PBDupy4HXrFsw7/m96YY5iSiJoMTzYFrLmTRX3wtNdW++ox+ssttvZFhgTSiRP8Zy7GrGoCDB06zt/+23HsMtT83iYCfhMQOjNacbzkxY/NVHL26SBWQQhgAEXSMNWwZdkMLgXNx2eTXVNVOYPncjjVnTmpMI9DX30XwG+sz84OBULwpe3HC3gu6I44573rWLDQ10XceOSbPYbAXBOMLEwuxiGzWrj4vXeHjrmU28ZZ2Nc5iJfpfk2I6xMKnoyz5JpAN/oYK8PobDFE7NZB6BctvVUKiTh9I1KPE8yPht1ZrHkYCMLU1TJJoLQI1crAmjhsNK3cNYlmIyX4TrLiAObGyeD/Anf/MY7n96K1VBm/ZHo6AZFJORKslYjpnPcwzpRfECe77cg5+z38v/Re1qlI4OkWUrmeOLdOxeBunopijgWP4FnoOKayMK28zDGPUmDbnWwtaFBDdvPoC/eWge390NRAGtvVUdRCXm8KhEEJAI+F6f+a4GYr0c9fTKUBJBiReEDL+Y+UeC9Bg5DJPU6gI/t6kCgk6HcrmDKAlx2745/Pubn8LN29p49nCIPiV0CXkxmuNQjaQpqvRTAo957LmYy3082XHx/d0Zbtoa4UddYJ527jHba4m0TJ2MEJjoZI1bsDRO+1VoUymJoMQLYkgEUgFDDMlAkBJX33fV7rEUsdT2K7hnW4y/vG8bbtqyBc+0FxFZUzxGa4uVCNMEPSbXVYAS8zLpIk/7prGwF4xhV97AvYdSfHXnPJ5mlma5DTdl7Z/I8HkCO6RLoBGYIoGTb7YlEZR4UZzoHgxVgp0laKrxz4uR2hX8aKeFv7x3Hl9/7AC6ak1DF643TuIoV9kWNBtyBPr9co3SkETQhpt1ETgJPN9B5riYJbPesusI7j0wjwVlodoCyMM9+QU8g6fmQm6btycZJRGUeEGIABzHMUk4XiFoW0E2dW8R3dTD9/d5+C/3HMTnHj2ExYS1mJYor1YQx13uT9+hBByvAstvoEdXqd/t0KgT1EkCQdqG1TsCN55HzU2wr+/ijh0HsLXN2l8czKTIRUPH5AHps8JZO7koiaDE8yBDF0QGQ0UwbCvQ8vlmCX2VHDvFHduBf/vVx/H17UcQ1Qa+azQBPxtjgT3C2kurE5ZwbOabgqYyzcCsMQcePMc2hODlXVTTDlpUUpONtXhqPsVj7QRH9BjUk2CylceSdDWVgXoPTzZKIijxPIgIhmQgaFttA1IHIgaRwsF2hi8+Wce//sKt+PH+A/R1WYOZeHqW3NBG1A3hkRhsvyxiQhZHsMI+Kg4JQMFUmYde5jPfGvCr4/Aq6g60sSp3sWCNYTP9gWeZpTmz09OsDpr0JNaWJlw9+ZqgfEolnoehEpAbEEWRSUP0+33s27cPdz+8FX/0nS6eTlz0/CM8aA5ekiKIHfq9MQu3pg+kT6zIwRJw8gRuxnzMtIqThT5cdBGggyq6FonBrlAsVMwsrrHdxL7MxSHuq8BmMzbR+AQKKtJw5ZPfE1MSwSkH1ibG12dipa8ipaQeANUzSpFFP9Zi3aPx95YDN0pgMWmczBOHU3z2kXn8l/sO41ESQlfTb9kBvQQWpURRhtzPTlhYeabhvP9SFychDfvsFZxkApR4cvM7w3ED5vPj1MzRQ6WlmfRKbS1pvtRJcyuahVmkqKiuLGp+h/lDzoQVq2uRBMDvzOwFVo7ZDjlBM7nzuFT+gZ4QRYHCo3T0yUZJBKcUaBWqZXIl1i0yEn46MKOjqTAxGVjRUi3/NmcN9eieLr7x2AF8YfMcbt1N39+d4+l4RNYgt1TB8szCnFK+5ogVeTjA8ef++yT9NYY//MQY/DAd+9z8PUocBUwgE4nAGKYZVTgghyVLNGaL+agBT3Kz+JHPZ+BTdblMmmsxIwFEHkmX+d7r5gj7Om5ABJZ6aAoiMBO2nmSURHCKQTWPahnVTip8YgOb9uIyKTxXKaCfWk08BJovIAnNgiEPzGf4zP3b8NWHt2D7kcPcWQNkSrxWUBLBKQVKfY17dygvbUrUhPK/30UW9WClA6PXPHvctDUNr1tjLVTBTqrSP7n1QXzxiQN4Oq0hqtV5rmPtBiVWPkoiOIUgoaz2ACOYWfO7fPqKgfeYqP9JEEXPgHFJmRLXweaei9/6j5/Dt5/YjUWviTDzENMraIzP6CwlXiMoieAUg0L/5darV0DKQIuGGheW0Gi+lD60Gvrnmb7zbIiPf/Jv8UCniq5TRa+9AHS7sLMqolAzEpd4raAkglMMg6ECtH2xATfU0h7FSFMLiRMgclzsomvwrc378Ylb78ddB1LMexOItYAI3YggVQOig6h3rDGwxMpHSQSnGAbzXRjXwGxQBUQZScB2zQrgRyj7b35qHz53z5O4fcs+ugc1SggLWT8x0XCUEojlG2j54hKvGZREcApBHFCIAPW/kwT0X33bjqdYFUMCP37iWXzljifxo60LiOwqrJAfmpmIHaSVFkJXHYo9WD4/L/GawWuACCRRi2R6jk1NN4S21V+mpO1hGh5T9DQP02sBxb0cd1fm3ov7VeyAsqFYbotJg9wtGjbTQh+4+7Gd+Ny3b8U9246gb09wD3Uj9lFFCr/ZQq7IN5+p4fFQkkFxliVLLwu67eIPj+FRyoKjMQOCKSXFHvozUkl/jsMJb4WXnQ+vEK8BImgzaXV9zfzSY0oHmarCT2c34/fJoukiQ8rSnrN2M8d0zPcp94u4a59JATYrFbp0RQcqpi8xKw7y3lPea7gIREzMh240h36HeWGn6FoZNCtWmtqmwv/OXYfxv33xDnyl3cB8pQYr66Of2+hVxtD3Koj7C1QHs0yLTDSkrFpk2BImzRKkmAe9msS71GvxvJkIzemncF6bRmXm9mMRV9xExm2dJuU/5Y+JThy5f4SiEJUo0Y7dp74x3xb3bLZOLlY8EUSJhzit8CHXoQUnLPq6Pfqz3TBGxEKu9fYSr47UqyF1WLdZfA9us57TFNQ2a0WfOatR86aiXKHIY/rsJDtFo+dwEGf0580y4g2SXQVt5pMdtFBr5HBJmLXMguc6oAeAv7zrGfzF3feh01gFuFM82fFTYQ0yxZRF/inKI7HMmXX0OkqcDKx4IkjcKkIaeEgfVmJAXeCaGy5wXLhadEKLTqaO8YGLelIz6ruImDScQ7CyFFZCQzIqYmXCZtWhqawUQiwi6CUOujGJkPmSeQFd/CrvX3P8p6bBMGO+PLm7h7++93H85UObcfdihIMiCzR4ruOJoMSpgBVPBAHlbY02XOWr4ra1Vr3lJHA8+sTUkRGr+cTJoUWlXJrIsB4rvOZhxaItDfVcwdWM+gXV8KcgAfO+iBnQNAJajkumnYdd0oCHyGniwV2zJIEncNMjW/HIYoLUpSaySASJlvFeuYRY4qfDiicCzVcvv9EYs2bS1EQYWnAzV/0n45fs5w55h9tdLc5tjEKfH715GZEGg1jLLHf/PpA/rMHrg4ktNRluhbelSTDFCEHaQUCSbGcN/HhvH198eBv++vEdePhIyJ3GyBRN3j53ztrkw7Jr8FTDiieCnh+jE/TR9/tIPMoCsULO20pc2JGHgOXcjfiexKBk5SE8vvqs/c1c90Ru0YBMjbhys0Mt4xlJwBqspuvz3jRTrpWRGMM2DZyOkONh817g/775UfzN5j1mLgFUxvmdjxZJJIg65ETuawi1xKmEFU8EagEmBaDNOn6W/u0BZwyHvAZmXR9aaLtPg4hoGqE9jtRq0jIK/1dDPZ00JjfwDKwIVQcOeGFFQosJd9OifVlKyFIPiZSRpEG9hS7dgScPJ/jE3z2NW58+gl1HSJrBBOyJNTw4xcKzuzBW15z5MVKRZolTCit/paOeCq2HPmu/Laz979ib4PZnduDp/ftpGDGCWoBzV63Ce87YgLWtCjZRBa8mF1TkSmimDboDiqqjWRiXYaUyY0IGUPOAQ0N21d6hxftjhyqpgf28zbuf7eFvbn8A33+ig3lNKFprIPe1ci+/jCL4VFJJ2qOiIJlo3LxU1YjBOG5UcqYpR32Boj2+mtiRQfuOljzzuGd1zRpMn3sWUo2ngFOovzRFxo2E9+rmVE/FGUcLvM7QinG67+Mfnxngl8/WGhIJvJRKzRpHzMeiniFNT3IyseKJQOVh92KGe3bN43vbDuPOfT3sZEWoqaDUCauW9CYLyZmeg0s2TOBnzpzElWsrOK1Gb0ASmH5xRiIImbWsD1csEagpQDERcgVcR62EzJisjr2hi1ue6ePz91AJbNlNYvDpKmVwyRzqOs3pP0RVj2qJ+0fMj0zmwePNGUcLJRG8ekQwsuVez1Wt3pLsLJ78QGGuXT73DJ2BlEfexsP88gu7Q3zq0Z349jP7sb2Xo5v73E/r1dfMzDmHUxv38mRf3XUYX3p4L77LWvHJgySLWE50wLwPWaMeMjPsqFZVmTFdiQklRqKGx4TnU6AOv9d3S4wsiejC8EZNtc8PhhfCS9S16m2Y00FifrCEELwnewy7ey6+++hBfOn2R3DHtv1I/BafuIWMtX5iZ0i02i+PzqUQtACnoEAb3uso/jMz81CpqNC6nm3WA7B4HyIudYsqKXgosmvw1HXKx+tR9dm8p4Skp5l+tH6iY9qC9KBHL/GR8NX85+NVeFTxasAPXy3qGlkiEET6skcWW1E9CyyLLQ1ClZeK7e6FEN9+uoObHt+Pu/e0cTD14NaaxcE04DylASkr1SMQ+DhER/q2/Yv46yf24m+emsedJIODzPicdUiV57bNGF0eKwNjUjRayodThC3zTCnVwzJ0rckI9HdQKgoM8iZhJsmcFU3nmVrSM5Nibu8B33x0N75418O4a9tudHWcR8tQrcgMTAIHUUCjkSJSMJKIxqxBIFrhzoOfHKWUhkUkhEeXRtCkquos0TwKZhfTdcoibQcIEov3rIVEdAy/s1mPcudcSkjmxF0N4Y1Q4h8V8yL79bbY5KvMv6AAlf1XgwxGlgjUk6eZsIO0Cyfts86uoZM3WGhT1LIujoQ5vrA1xtfvfwZPbd+DfubCqzYQyxgihdcW1KrmM63QW51LUYGPBdaGP1rch09vfRSfefpp3LEvxFyPBBKtYS0S8bc0W0/C2lXxBz7dbEXau2ZlHy9uw4kVmry0sLTwJSV9Sm8nZQ2oXsLczamKQsRJlzVeAj8PKPcbNBYfz1IYfPOJ3fjkHXfjR8/uQpvyOKhUgEWtVriCQaM28yiQ2OOIhNUh2avx16ECyhwajzKGzztpQ0sshP2emZrN4v4iCxM5yu+l7ko8F6OrCHJN6MiCSz++S0Pus9JyHQuuX8XuxRjffPIA/uz+/XjkYIieVSVrkCRYE0QRCUBxAQHNXv6wQ4IgHVS7JBCPRs1CoEayXawBb3pyO/7vHz6E7z/dw7Oz/E0pB7eg5JS1i1xmFR6HhS9n7WOZLjhzdUsKFVvRmiYFDp0EXatPEojBW4Njk6ZIBGaNvMTBYfLU3z20A//uS3+LB2dDRI1J+v8Owi51gsd9VjCqrRZdvRTd2TlJIWBsCrZfQ5owY7S6EgkBYYj08C6sGavCp59ta7SkqUVzVPm+Ugl4aOH+lDiG0SUCSdTsCBb7rJ1rY6hRHkgQ7u4CX9oC/B/fewY7OpR9zSl4TFpXLuqSLRIeJ+lIA45i1ZgRssBFd7KCI7OHVZqAyipa1yR63Rru2dnBv7/lAfzXJzt4nLXpfFahtGYNyt9r0OjS+TkTfmz5FcrLKgvRMhgTb0vrjIqDtFS2HKOMH8qDDKgWLCqdlGT1FO3j87c/jk99+y4ciukiUSGgMQO0ppiXmo14ZRf+mIogNXHkfAZSSdzOFjSgKoMrCdnpGNV21dmrcNk5G9CsVeF6zB/FiRC6fzkRCUm+5IHnYoSJQJdWh1OtmS15ro8e7OBTd27Hn9+1E4drGyiXA3WBoxfxqaoiV/XNGsBSzaeuQcoIFRzNF99X3+DUGDDHgjMfw0trVAvjaNvj2BVM4q+27MR/uPVx/HBfhlnPMevNKUqxqhjm7rw5XZdqpE9VsdTQ2AArymCT5NS06bEURz2qAvq7+kSNnnfs7+G/PfAwPnnn/djT13TZY8wHEsACr1+EWa0glHJYwUjpFnqeB09ujp6PWV2Yr50jcNsHsXHcxQevvxT/9JfficvPq5vJWdUArDIhyw97HXSpjIzfaZ5viSFGlgg0Rr7rTRt/MGMNeNfeefzFA/vwxSfnsL1D6a5BQpKCai0SvZswYSZLQ27ICkbT670aiXhCNSRJ65sGM55RtYlbgdOcxBxr+YOhRRJI8Mm7t+KrD89hl+bdcFjgVIgoKXtxQkPiTy1Hjuk2+KKpxiUI/MxmDRggc2o4zGy4e+s8vnjfZtz09A5sT13yHL8nQdToN1cyHhlSFfV6lNEr2zVwNLkqn7EZWCw3Le0jiBcx7fRw5YYGPvSmC/AP3nIRrjwzwAyFn9qJQpKH1lhISaIiBrmctj2iXYfLiOUo1i8Lsl21YXdTH/ftnsOXHt2Pr2zv4pmIVXvVp7H3+aC1o/aUHOCbjEckPb6EphaFlIFkofxJtR3wxXJk2PyM/82CEnlmBuZYJJ5dkYPbdi3gKw8+i688vB8Pz7rouWP0yemHkliGg3eWGoZ89ON61a3mHmyvSTcGzJsUNz24Dd97bDf2HUmRBBo3oOWzNBw5Ih9SDcgl4OFa3WglI6ExJ+oF4DOjMwQvaqOVt/Hmc9fiQ9deiF+8ahOuXEtvSI2+Ci1nITDLi5HEUzX28n2gikDdh1IFJY5iZIlAZdelrf/42TY+8+P9+Ma2HvbSf0eTvq+m4CarG8OX3NWacrGIga/U8OoXz/lq+p01PTdf1T8buD5rkRQujdrRXN4KpQ07NBb+GAuKapBFqoSHDsf47L078ZcPHMbt+4FdoQeHv9m0FxGor36JoQVvYnMbIj0ZtWsmUnlwRx9fuecx/O1Tu7F3gSogG4PDPLIqAWKfCqYSomtTCvs0HPrLWY/5s5LBZ6ru45REr1WE17SquOaCTfjA9ZfhvVeciYtWAWNUCG5/FnE7IhHwuTsuRaPq/7xobGZ5KHJRf0sMsUxEwIdgZG7xOI7WU5RtSnrfofO/c+cB/MX3N+OvH+9SurMuVty8o9VgyfKpbaYWsUQAIRMLiUtjrdEIPGP8xYPWQBsnqMAOfNYOCinh5/0+LPrYpBVUA3rdJIRcsfmD6n7RrmNLv4ZP3bEN//k7T+BxVr3zrFXMbD+JRucdq1mL/l9dN7/XK/Hy613df3Gdw3zQ6zANvmKRL/7xKrmPh3bi4Mk9XXz55jvx9XsfxQ7WflZlEuNWE9Wc96P8qNpIXV6TTbdA92dqRNaGI4nB3ZtaWkVS8p80zry1TN7qOxterUXS5n3R15/gs3rXNRfhn33kevzMJVNYXeNhCZ8Py0er5vO5SAUU7oRPZejQxVSPcqxYiaMZPFow4nYoVJb4+pYnxNjUvhL+NmIvAOssaO0ct3+IT87GvD2Bb++x8Ftf3Wy6+woDeb6UE8s/55maXfRn+MnzjynwQt/zM41epH/tRVVeWQWh4lLtI9jQ6OGD56zCr5y3AReNU5SywPnqfeDXadSlwlDUI60xYwEMpulK0A55xpdiWRmoIvs0EYji4jRlmkO1Ik/eBI6wJBtOs/ZwX83CtMoMorr3aeAP/+Jm3HngMPIzTzchqOo2swbrDXKXF751ffGTsmQZYSID7RCpM0ljpqLhv4biR5J59JM++jatfmIdsJCiwf2u2uDjfZeswvteP4O1Wk2cNyaCDG09NxWvCLcf8fFbd8tFCOH6IRKqKCetIOCzstIaYubZqKkCPRqPbt9i3sd6Vnq/cU4dv3KucidHJZ7jDhNQp5XK/clu41geRWD661k7qfGHb43qNV84CHMfm/e3ceuDz9B/p6ENbvuFUIQL8TvTCqx9hvsdv/1CeKHv+Z7/1dBoqXvOjMCjYVF57FrM8INtC/jiA/vxI7oqOVVH2O8i6vZ4QA19bxW6/np09Nruos5DX05PnenWym30WFh1/xW5LKkawjRGwmQPv+c1JE0a+zgJEvjyjw/g9z7/Nez0WDjWrkY2vwD0pESGkneA4Zvjk/BCny9zMguryNeh4hqrp6jQwV9MEszRzem7E6i2qPln92HG3o8bL2jhV2+4CDdedQ6mGyxDJjxa0ZLH7l9JKMrN8Z8cw4lP/1THshCBjNs04tF4TVsAk2rA3A0wy4f/8IEEd25ThM/SwrTKG/1hBi4zd2hgVCywGnhs3sU3tvbxKZLBTY/sRieomYAlzeij0AXubZYR9zUJQHKEN8MPXwIZDSDPLNN2IcN3afSeake1dcjlUc8ILymOxzCXuPjcbVvxZz+4Aw/0O9iR9RBWXfq8LhqUEhWFR69UqBW/0kSg5diP7KaH1SErMt8Dqi6vDq+ziAtY8//u9ZvwW28+HddvrGImoJJSHumROVQMmouhOFuJnwLLQgTq243V7SeYFmA+RyZNl7Wv7+CJuZx+78BhX0KYJbN5JTlZyaJvbVs0RPUwBHVKySa2RBXcsg/45GNtfPqu3djTU41uoSK+oN0bZeOrVboguZeCeiuyjK6IAmRU88eU9yQQcyjzKFPXHwv4s2SZz9+2D39912Y8fLCNmNeDeo1ORUoi4CXyGHcl9wgwD3O6ZIoaTmyb7g83RMJOijGrj6s3jOHX33wpfvGK0+kWBFjj95nfXboTLL5OQDWgYdMKFiKZFmcs8QqxLESg8n20/spZA4rVCfnJu+Z72LoQoa+Zc5YauVsUKvU92prmTDUOkwqlxunTpTlI7/+Hh6v4r7ftwOfv34snDkessWNUsz6ClH4uLbjtNKgrXjpr5RooZYpxMKzA35EqYQ2ZehW0rQDbZyN8ZXMXn/7Rg3j0QB9pQD/arjGxxqTlaOxBZMV0Zl5agYws9PxNtF+AtML7Yw3vpG2cFszjbRsr+LXrzsOHrjkdZ4wHJpxajYi5Vl2iWlAsRUIy1YA0T4RoOp1LvFIsCxGo5pStmUJv5HgB1WkH5+axd3aetbCagZcYpiXGNwZvLpIk4IS8lv4cjY6vGf1xNQqigl32GvzR97fh/3ngEO462Mcs/VTbYSHk9yK0wj99cagh0GFGqG88k3+hMDkW8IjkMM9s2bYIfPOBrfjj79yKpyhOOm6Dl1WHT1cFh9pFbIRrk3hShCKrFQot0e4HVIByBSK5Oz7Obua48cwA//wdZ+PnLp3ENHkvpBvWzzQQrE43rEp3zCH9WSRTHqPzDLuTS7xiLAsRHIVqQBqQqREIXYy68bKYhVxz7S01ZEuqmGmIhgzUhsHa3u51YPcX4CYkAvn/ySwwNon5NRfgv9x/EL9HQvjqsxH2o2HCfsfcvCC6l4mMqihKIv4m5THdhAUe++hh4At3PolP3vIQDrf7CCWfbR9e6sDvpbAUA81aVPH3pltVLslKBctBHlPqm8lTQ6yzuvjINefh//Oht5geAqe9H0nYg12lS1StkQjoPvBZiQcFkalGFxqs8KCp5cKyEIF+VENnJYfVWGZCgAefrxmv4bRJD76MbYmh4cdq+ZO/GUmeu3Xk/hhd/gZd9QosynXFKVQ0NfCBZyhNaYRrZnBP18W//9EW/Ifvb8GzeRVH2jnL4zGl82KQmxuwNgxqFfrHnpln8cHdCW66+yl85f6teKztw1+91sQ+gMaQazIRugOVulYaEpHKN/ZoRJIwKxMZ8z1enIV3+Bn83Ll1/NtfuR4fvuIsVHusEHR/TeZ/wyMRFmVErUc13m6difqNJNFHJDcpJxlqMFKJVwzl65JDwtlRNwG1seXRL+RnMpucNeOaSRLBqjprX5nE0qImo5QkkLtCN8GsiuS0SAhNpCSDmL65JkSPWOCq9FftcCf3O8D7yLA99PHVJxbwn7/5JB7clxVTKb4MqC9bE4soYKZPP/fHm3fiG7feju/d9zh2dHhBE2cgOnCEHkMFbpW/TSLo0WXpsQaVW+DQOhwphGH1uALhuA6mVk3gH77rDfjdG87HDWuADXYPdZYNhUyHdt30yjjMJz/P4NIF0LwQdp/uWtSFr25o5k9CNRXnZXPhT4NlIQKWepob2VthwqzdJKMV9aW4v9WNJi4Zq+NsK6RaqMFOXTRYY9gs+HlG+SzHmhJZZ8gtug8WvUTa7clIUtsZ/VUDNd7JbVGtq2Z8JREE5bgaAuWXmrX1VPOr9ZP3o/kB/25XD3/y6CF87ZGD2MlyygpN1IIYHd4fXQuFQ1N4KDBIp3fCNs/j4VDq4XtPtPG5u3bju0/MYVfXofGz7tNEKLwWtZBLqYgsDW3qJyWHeb0Zr01tEsPLfLF0smAmCFHtKyUyaOgUwSty26yPwLtWGLereyQpOsxcrefnmmenbuOEJNZHwGf4ujUe/s17L8SvX7MRl29oYbzKCoLHWp5X/A7P5vIvPzW/bW5EZUfdhoqWJAGYDgR9LGpVPnE3/dUjE45um/fF9yWOYZmIoHgeMqiM7K6BMTJyocXne+mqSfzMaZozIDbjhsI05n6qqfmk1fdOY8hoVh4LxNHCcRIQ8VQJz2n+sdRoIhKzchJ/S8SjcNciAT15Nlo2nOK0WLCSxshCuY+a4tu75vDZH+/B5x7Yhzv3ZDjCW3Myh8bAA9UWMPg9s8EafbZv4QePz+Nztz+FW7cuYGdUQ8+pkRxFGiQPX+HRVA6GmHQQL7QIOTQkkJEQ1L5gPn+ppJeTABlVprBrg8FJDaPqO76S2VMRGD/TlYowcsszLfxmurEkxHp6N28+exoffdO5+EdXrsel0z7qLp8vCTCnGtAYAR2r1g+fxxhKMAOGRAIkIQ0JNzEE+k5kwbd8Vga8BHMdTOZ18KH5N3xb4iiWlQjMQ5KB8ynKVbBY2+phnrbGx9svPxc/MxOiXu0gcrif16SJ0fA0VVHCWtJ2UMnHWKuomOhso5XumacyeOAx/NnDT+PeAyn6nQplwBgS1oypk5hxDiq8O5IqbntmPz53849w2+NPkTRIegpKUoGOe7AUx3A8dHr+0bFKrxjm+JMAKZNIaoVkoEuUMuGLekKPXhmfb0JJkFVJYlUWNQU9xCR3qoczGj7ecfY6/M6bL8GvvmFDsT8hBVBi6bEsRKDCMmxLM0EheiUR5FrNN1arO3D5xgr+5Y3n4WxvFmPNKjy/yYLmUwU4lJcOGpUmfWoPMWW5GH7UUru1BgdrM/guXYVPP7AT39sLbOsDs2Y5cd5zHOFQO8K3njyI//6tO/Cjp/ZgUV1iGjvfo/+vbGnVkWsm5eNObAiAm0MiMMpl8F3hOrx4OlmwqEK8ZkCFTvOPeY1KKd01PU8N9Q0C06ahcRCJplcXt6knyI6w2ovwoWtfj99++xV454Y6xntFD9HxJKDtkhSWDstCBMkgLFeOnYaJsoTyTY7AyVClm+CTJeqsNS5t5fhPH7wBbw1S1Dp7EVtdREGFSqCBzsFFxHbIgqd6aAShSTXbDub3hvjqE7vxv97/MP4djf1QXesQ2YgiH997aBv++1fuwAO7OujaE1Q9LWpgjaJhnkh2s/as+JqK7JhBDI35qHGbd0sPXZHvqd1CD5JXIX++WqXLrnYNftZuI2lTMeieLMr4zgKa8WFcUm/j9z7yFvzyVetwzpjuVEPOFE35XBIosbRwPv7xj/9eq8WHtZTggzbBNHredA2iPpUAt22SgsUNlQOPhatC+TlDf/Cs1aux2FvA7oUO+laFtSYNheoBDbUbsBCOIBdYJLm6GtN4T1pkY5b3tXehi23PzCO0xvCt+x7A5297FJsP5ujzfiy/zmMq0BJskksOj6kwH9Iw5O2Rr43FH6MEbWlb6mD43dEvlwSa9ac/yHr9tq6R6kyunrpheVFBwHtX008/xMZKhndfMI1/8f6r8YY1NtZWU/h2glzP/Ljp3/7+JJCZmax39lx8fXcKhzWOLfeEStLOtFS+psP3+N5k2khBd+7wX0RibLk2Lp/ycdGUGoJJmFq+zqqaLlTtd3zlcDKwLIpAjd1HA25YgDTTrJk5SIVpeIMsVBYfpnoFLl5j4Teu3oSPnD+D9WAtgzYwxcITkgxMoRs9eGEHcdpG5qolPUB10cf8vhS37FzAnz2xC5/eNouHqBhyvwWnOo6MLlHKWlTyOiAJeHz6aZjA1RTdQwzUgCkZw+2jMB++jHRyoJ/XjEcmfkFJg55CWj2JTBOJBnyMTr+DRtjG5atb+PCbLsbH3nIprlnrY3XQ431RMbDId2wPbe5fugLLi2UhAmPuLEimLLPmdDTCT4NH1ObL8qRUtAEzpTGJo4s3rK3gQ6xRfv6sJjZNpHQhQgShBTsdzcJjejZ8ra5DH7kXohrZCLIq5snq9+9dwM60iWRiA4JGC+YWlCGO/P2EIqkgN5GjFjc1pKj3+lCZpnw7ul20Gxjo8xdLJxsapGWISmQgIlcnnwWP5OzHPQRMbzlzDP/gjZvwvis24tLTxkgSvCE1EOlYPd/S+EcCy0IEKpXDmWdM+SQZmIFIrFlo9saH1hz+Cfmhy21DGFkXF6/O8Q8vX42PnrsKZ7MAeWgUhcmcZbRSSp/ZUdeWzJT32nYppesV2kod6PHm3AlUxlZRDagvnMbhkdQC3quVUtrGkEMQK194OtMScNzpjVg87v1zyGHJIAPm9apLVGTgVeD4GhTE20liTDequOLcs/EPrj8HH7x8EmdPmQtFD5ouvoXEHifBV1CjK1E3D7jEcmLZiMCkQQFQpaekq9GadgpEiVnOZmnjfiWAlZERWLd6QR+XrLbw6xetw69ccDbWterkENZEcpw0jJcUUkgNbhanLjB8v4RJszCHR9r07XgTEy1EfohOkFDJUPYnPpzYNbFKqLgYW7vaEEHWU+Maa3/61nlMKlhcNK3vOmHRLDio/bWpP4P8K/6+BMyBxctLpeKPzq885asacMxnz4WmgTOx/boPtQ/QPXDTCDPNAO+86mL8s49ejbe8bhqrK4uoWz3EvN65yCPBV5G6RYiQxnJYau85WeB1Kj+Uhpd87NK1NXjHHVRURimZi14mLBMR8GdtFgT6wroA1enqXVLStlKFhWbaFKzcqIU4qyDKGiSIGsZaKT5w4Tz+0zX7cN4ka1h+XtOqSM4uoC6/2jPTeFfVGOHyYL5IXC/pPxVwn64Opb7mR7QSB1YnRC9cQFKJkbk95BQDeXMcUdCAs2o9MLWOH3jIuzGNKyfxeaibad0UYKtAJBGdrC5lTcxzUIJrUVg1uqiRtVAGRRoW+WEqwnGY+PVLJdOII+uWgcpP8ys8iZ7K4Bwy/jgyIdmuS1KjYSPJ4NEVuHBVBf/jey7Hv3nPRryz3saY+fHVPKqOpqVGQot6QKHc+lwb3DqJI011+XK1yEvmj81KwlYQk7psqVzMZPckaS2GOoppuaBHMdqgC6CRZWpF1xoHyiqXBWp6ahIXnHMO/pfLJnD16i66dKaD6HTUwgqSaoY+Da/XLQptYJYxGz0kNORe3EfEV4XUOrUqrEbDTDoiA1HIc1/9rPKjVUh4GxkNLldSiWduDBvYTLdi8aHBiV2Lw+7Gl4V+lz8UwalXC9elvcBfyuDT3dFEoJaqrzhDu1dBpbmK3x/GRH8n3nN+E/+vX7wW77h0BuEi1Y2CvQyBLDGKLCnxCjDCRMCnSR95uG1alc2WeUf14KJVb+KGTTH++eun8J4zN7IqYO0UsfbS0r/0tzU0N4hZO2optBGEutq06EZKHyFnje5QAfiNGvwmFQJJIafhqa3EBCBJCNAflyCQHUpLabEPGXeW8HjV0rJzGTtTITeLbX0+lJ9DQnixJBFlVlTidTlSBLo+XquGPGsmaJf5atWpxLwm2rufxbkTNv7JOy7CP33bebhuXYZ1XoxGla7RYFLWEqOP0X1KxuL1h1DfNAvosYtVgS0GuUw2Mrx9YxW/9bo1uHHTFGKNW6cagMOa1NdSoTZSLYoyitDt6aZooWb0BLdz1biVCmwSAapMgYKReT9GESjpEA3ecXB0nX8zRbeYwli6STLo4bZJ+s6kl4annhzK6jiMEYXKRyoV2ycZWEjixBCCozEY8UFccc4qfPSGS/GLbzwHV55Ww4TT47E9BL5rxm3wckusAIwuEQgyFPrAZsCReTtQBSrYqgH5P4YPVqC4YaONj180jjevr6BWS1mjUQVkPSSaV8AfM8ePHOTXK/7e2DPJgLdljIduglwDu0YXoc6bM4FJktnakceoYa7YYl4oHwZpaOsmkQz0EdPRbX3+MqDVgeJMw3f4m7nLn2/yWJKD58OXixazxs+6+LkzUvzOW8/D+68+DWevaiDgrRTX6UJLj/+ENsYSI4jRJgKWaI1gK9yCokjpgtVS4LLW8lkrhqhhUY5CtYtr1oX4/Z/ZgKvOyOEHrCU1RTaNJquqhI4eCv9e1jK0GA1xpk2r21DTlqkhjarAa9BVqJIUNCqPZJCQBFUzp5TtZsSvIQhClj5MhOii6GqUq8CUFUrhpVJM/z+mrHdqJFAnMMOlFShU589M+jZOb3p481mr8f997wW48Uwf673MNPDGThOJO0by1fLzvFxenJl3osTIY3SJQOWXBVeDkizWQsZYVKZIDPKJ5SMbn9fsysIasyjWOrhk+gj+j+vPxIVrmmhWmwhyKoPObnPKkYOpySm9aXzm/nSvrEY1/NYM0VbEHhWN12rCbbboMpAMRBDcX0OAk0hzMZD01JgqMtB5BklGf3Tb/Bi3TXoZ8KVGGkh1zkOHge4CVjV91PqzGOvsw7suWIs//M3rcP6GCiYqsVFfGiatphnFfWrgthp2tfiLejZKjD5GlwhUSRrDOO4SVbBVwGlAmrVW75v82HRFuTQSp4G84uASatQ/vuZ83HjRWkw3IsyYgTEjCF6/FjORwjGER+PJpWBYnZqYfdktP09omFktgNWokuzUbkD5Ld2tRrxBL0LhGvAAJZ1aBxeb/OhYbf+yQIbNokX6CF00N86gYvXQ3f4Irlzj4X/9lbfhf/65S7FRp7IbiHoZwjDhPeRaZQ0+P4+6IfphH66CjDSorMTIY3SJQFBVpgLMAm8K+KDWdFgrGqOhMrB7IQINgXVSdK06a6Np7hfgUjLE/3TBGD54wSZYY6KL0YPcHTX8ObwvJUNy0uEybLWBmPt1Wd9SqitWoOLDrdco2WuwfJ/fUzWwxk217LmOGWJg8MeTwRDHk8JPSpoQhhcBO+2iO7cH9byLj/3CO/Cx97wZ120axzq04SZtdOkKxPVVsP0G943hxV1U8x6aQY6K55rZmbRkXYnRx2gTgSAykEGY18G2VIJqRAW+mMY24ygYP1WtAZq2TqOAXzcJfOTCMfzjS0/HRbW1GDNlfJ62wdqKx3h5hTrWY+HXMREluQrt0R96waQ9Xsh4fppkxA2TsXtxnd5QERTgq96b7jt1f/LVteFWA/itFvzxSQog+vBBHZmthVy1P403N5PAwaFCsGIphsQQqb7OtcxcrmHBPjkkhU/f3lMEUagAJrlfKg7clrqgKhmjj3/1dBW/c92F+NUrN+L60xuYqSlzua/D2p57+zxEj0GLjIqc1VBoFp7lttyVYdvOUkKPUb+qW5OLVHSjFtvKY5PPBLdG6p+5ohPKyPBKX23oyY82aPjGPRABmPfHkibHMHOZUX6yXoU6CVU4VU61IVV6ySoHv3rhOD584STOrVK+ujwfDUJlXQbgK5jHlBwlfvZSMBal15OTVCa19JmS+cyQnh4LX/WZiGDAFPo6V2huhUZYr8NRu4EWY602eLO84UE3gQq8w6SFQMxBR2FumrZOYqHhp7HF03J/n0asQQLqgoy5D6vyGaqPa+kWfOSNF+NXr70Al0zYaLhUYE5OdeKjmznGJRPpmKtVZmv6MA0+Kp6CadC1h89tiaBfO/5xml9XHigvTB4XSUZWfD46qbi0YyRQfDGAef/qYfSJ4CRgA23lV18PvPvcFi6amUHLa9IIEiTxAnyri5omNzEzlw4OGDXouliIzWKhTAkLheYpFAnaVAhQN6PiDVgLq6xHNG69KhpTkYCuovvkatBvt7Ld3KHD+w3oUlToWjjkEe7j92g8CdC3cXYlwPvOWoMPX/M6vPsNp2PDKhq3o/EAXb7G0KxDsZaRL/GawSlBBFbWw5S7H//srafjQxfM4PwgQ5PGnwceOqw6Uk1e0Qu534gygWoDXpqIQDEV0gYKPko1n2EtgN1UaPKADIwyIFloX9aHJvhIpKD+PM0ZEPfJG76aHuhmVOH4NXQPzyOeX8B01cGaposPvl6LjV6Et5/dwDpV8uiROBeoHro8Z0xvzEbdBDqVeK3glCACdaBpcE49nMc/ubCK371sElfNeHADF1l1Av3QQYt+szeq2SFfx/g7ug/KeSYFHmlqdzPRKWtw4yo0miQGugmKP6B7oSnhtPBHRrnvZposRMuBbECXfKCp1RMc4kYXQd7AWnsKM/1F/MsPX4XfuPFcXLiOeaImBU0Ua8Um5NkJavRcSCIKMipEd4nXCE4JIkjpu4bV1awWXfj9ObxjUx2//qYz8c5zpmCroHs1RP4Ua1n5t6MHSXwz6EptB7Q/NWqyfqdE16tqfrkK9PNpqHadZNAcK9wF1zYKIlb7AhWCmRzcop/kavwfsTgLt3MYZ/OQt527Gn/4m7+A9104hTV1fqes8Kg+FCqsOA1U+TskgrxSLLdWegavKZwSRKC2azUmZjZLeKWOVtXGtWt9/NpFE/jI+RMYo/TtquFMsfwjB4u1cHEHw1fTYGnaDZTkNshloNuvlntKdk9LhGkeSpGBr6XCtDIDCVGNgalWXUnhRz5qsY1zGw5+7qo1+NiNZ+GaTQHW2SkcqqeEPxPx1xRmHDHvotxh/pBIht7TKVFyTh2cGkRAWwmSHCz36NEwUtaU03aI6ydtfOziNfjgxatRdw6z2I/mKEXF7SupqUAwKywZScCkznq19Gub7kOmWH+6BpLyMEOaNXjJN/dcTNjZgbNwBONRiOs2bcBHb7gMP3/1GbhyY9VMHmKpUZHQICj9ExE5cgVIAios5hLEl642SrxWcGrwumpNGov62E3htlLYaYIWLeuq6QAfe+MMfvGCFKuqhRGMFkgCrMEzyvtitSfZoYyTf3W5qurVvShysF1+bSHmPqlLw60GsBt1M5LRCqgMHAutOMFplQxvOquFD99wAX7lrefhorVTZp5BwzSaMo3M6VE9eCQFnx8H/A1FDKqVQtPHJ25CN0o/XOK1glODCEzfvEOXt48KFnjTXRpFwJJdMS3q59dS/Ot3b8RVG1eh5bpFMI5qYDXI0bA00Kfodz5+KPQSQgSgmtq4AXzPF9GBTeM3QTMiBdOgyKvTPsMgIvXjG3VQMyMZHb+CscTFz15xLj7+4WvxnmtWYzrI4cZA2KshsWqInIzHxoPQZ55SUZ0RlVLU57kVdJWANKDRBbqIEq8ChqEX5jEP8SrHY5wSRKCpq0KV6ozGkPks4B76dBEO0YXelyeoxyHW9S38i+vW4V0bVmOyuwBHQTfqiqPBwfV5ggROFKOqx6MntJRJc78XVsm3mp4spr/PRKPMZLiemgxpzYmMVZGBPEgVPJPWGozdCtLmOCprZ/DON56HX7r+IhNo1cQ8iWQOHaeHsGGbhVnRpRuhDcUJWExOh/e/wO02Txjy1HStTOMhibTESYcqHI1K1RNVxSPzNypWQXV6Pq8STgkicJiBptjSmHKacpg4yOMeammMpu/icOJhV7eOP/3SA/juD27F3PwcAjW8yffuhuaBaKBP7tiIVEOuUGjZ9dv37MSXH9uJ+xZczGGMpWyCRJhTKfTQsCK6ExlSuhKx30JmN5lnDfoFLaCi3oaqmb1IEQTV4pQlXiM4JYhA7d/IZlnLhazNFPoaoGa5qFJya+TcY7MJ/n833YNbHnsSswtziCNWpRrMpFfKbZ+yXK5CSuLQ7DwrFSlrmj3NMXxjxxz+5Pt7cNPDVERacUzrMXbnSXht1kbF6kW6S/UQdsmendxHjynObeaDhoDHdKlWbj6UeD5ODSJQa7mmLrOTowOTNLHmQt/Gwzvn8Mnv/hg3PbYP+9XKRp86p0/cPnQI6ZEF1JMcfqy1/PmdaXVXWpnISGoLThM7owA/2D6Pv7pzO7583zyenWc177Wo/KV2aOSkgoFTZO5WvaoKHTg6/6AZ1l0SwWsJpwgRsFhrui/drSYqYemeZU1419YFfP72p/HNB7ZiUWsnqOtNw3tlAosdxHNzgBby7PZZA7KeLIbZmVOuSKhnIeQ9OlUsktju378ff/XIM/jU4wdw+2yAg/kkrb0Kj8opyPp0p1IzkEvJzArPW1fDaZGR/KDEawYruFS/fKSs43pomug6taL1+inu2zGLz972ND53xzPoeBOsEUkWWruPBd2pVmCTEDSDb9JeQLg4z9qSZMCjzVDbFQtV6xU4YUj3KETc8vAYs+S/PrITf3z3Xvx41sHhDs2e2YCkZ+Yj8EicpiuRHxV3ziJjRhiKHkq8VnCKEIH8XQuLiY9uGuCuHYfwF7f+GF9/+FlE9RnkaiXv9ljSWbgdF67joF6voNGqGgEQiwyoDuwwRqB5EFYoFJc45osI+rBp4LGdIeL7OX8C33j6CH7/C/fg20/0sTeqUgLUeYCaWHOSYAdW2IatHglCM0OHxy/OWmLF45QgAsUKBEx54OML9+7E//75W/Gdpw8gbY3T8C2Wdw81VyPx1GgWI5ydx2K3QwIhhWhZYoXm9kLkdBHsSE1pKxOaAr7dO4TqRAuxU+M90ZjVIqiApCzD1tjBf7rzCXzqwQN4YNbHvsxHaAVmsJFjqcFUsxGqudUIpxKvIZwSj1M3mS/08Zmv3o1PfO8hPNIJ0K5MIHdt1F2trCxbcE0orWknqNbgVXxELPhhQp3s83MaSnxkDt3Ds8VJVyA0WCn1Q8z3eqznm2TH1ajYNYzFfb4LscB8eDyv4POP7MGnf/AU7t6eYZ7HJZrPQA0EaYw8CaEFWcQdJV47WPlEoNo60dTeZmVAzb8DTaFh3FyFYmQhtuyfwx/cvA1fevgwtswpKk7ePvenAfRSJitGQsmQqtYjOSippVyLdsqtMEFdhk1Y+jttOPv2w52fg0OjsLSSsWk84E7c2YosuH2eQ20JPI+ZUk3QsYoQ1Kt6IJYFvBYzwpLXYFr9I15SbO5Tsw6lIkFe2pZ+BV/dEeOTdz2Drz68gL3M2JAKQmsGpsoQJjUemvMo6lALtoo0meMdpr6ehOItenxdFsYYzOakxXE1UEpuDLdNlKgEnnkGeh2tZC6aMLNVDaCtYqAZtwZF6dXAyieC1GLGWUUPId8qKfdEChTyeOLAAv7mnifwOcrdJ9su/eKAdpvDUWw9k4nhV8QeXYBUk5Uoz1VzMuPN41CUl3kafAoaCsxj7HnWk+0FFvQOckUgysDN3ip4JIGUSdrZJJ2E3+lr88SHr9pYDjCHDDmRMtMOIhJllxfZF0HoejMFEHvYG/u4e28HX7rnGXz53j146GCC2byGRPnHfXymhCScMq/0TwutOCSGYrRDhkQEoZ8xLLp0KK5mmM/KZoWHa3Zo82CLnYo9Rg7DayqmKTsGjS15tcsLc2dlo8dbiFn72iyQVtKGG8+imnXNwJvNR4Av3LcPX7x7B/osmAkLr1k9mPmq9QPMeglm8lMZ7AsX2Od8qjfcVy5FmtAIOl1ggakXwcwT6NiwfX7nD0JEjQIoDi0wOJteXvjnRgOZGk5T9J0K7tsX4c9+uAWf+/EB3L0vwZGE92iLRBcRRiRRrc+oeSNpZG6YIwgtBJGLDgXBbMWlkhjlGy0xxIonArn1RgYo0i2mUYaLLMgpdhwJ8Ylv3YNP3rYDW7PVxtfXBB1GqLLm04SoWkvAEAD/m67Fo0Y7KLzHkcNwEVY1LuYeaxhp5E7fxBtYnR5cGoVZ1cfnz1d4qqErcPx5dQKTjp13FFGpacVjSvxOhF5jHXbUzsRfPrCXebkZd+w4QmWg2pUc2qWC4nbMB9CXqqKLpjEZUkX1ehVtnksuWonRx4onAjNzXhQjlUQPGkB1DR4/nOGPP/ddfOehnTiYj6NnNRHTKM28I1ICMurhq4xShmqc38LgTzTWY5skAb4xKxTL6HVMP4ZNZZB32kjDvhkMRO1ckIDmCTSqYMgEKwP9Dl0eEdnEOO+TYj+x0K5O4dYth/HH37gTf/rDp7E1n0Dg1+BRPGh4dEZVltTpXvARICcxMmvWcVOTHZUYfax4IrB78wgoZVOvjgNJDbcdCvB7X7gTt27roK1BMzLi3uwxEqB814w9Mk1jnvqjWlu12Qv5ZscRgmD2kBtCt8KlLJYgUSBSIiJYVLsBLUOrE2vYsIhA/DI8rSGZ48/HL/TdiCXNcmTyrU3fKjpMFcR7itus4X08FY/ji88Av3/zbjx2sIMeM6BKRVDREE8kSDRfQSVFwufiiCSVByVGHiueCEzLvB/gMH3XW7f08AdfvBM/3JXhgDWOtmRqf453GdIloNdOIyzWFRzO+HNcIT2upVYEYOxVdms+KN6bzwbWYtFFcPjbtlwF1Z5hCHQphjt0TVijatFQQwb6Df43cwaYs5mTHH0Znm+UkgkjVsq1tmIXlWQePl0Ft9FEt7YGT/Qa+PJTc/iD2+7BN5+ax755ZnHkwovVEKtjeaeSaildNTMuocSoY8UTQe41sa/n4Y6nDuOvb3uEr/sxn1Zog5Spku6U6r5VVMsiADMVOKWs+sLN2G+qA9OKPmgvMMZqjHRgqcO3x4PH6VwJlYEWCMo0zpk+slEVilCcIxnQXZFboEZEM3kIDzNE8pyNEUVcKBrbc81UCGkSw2Ee2VRBmkFZKieObdy0s4c/vftpfOWRQ3hqlrevbrqsgpzqQKsqJb7miRzh+yxxFCueCHbQ5m596iC+dvvDuOvRLXAr8kppeYNAIJ9Jy4er/16GnxkCKGpq/VODoatVelyH9slCe1y51WZRi58A4/8ntBVN2cVtz4blqeeCe1MOY4HKQGsIDBoK1Zxgzj0443NOaRTDiCXll/KJqiCxAsRWFRE8ihx+rsVRMt6fJkNxzsTtuyJ86uHt+MITe3DPvhhH+DV9A+4T0F0jKazosRmnDkabCFgmiz8y3MzYFYuiSRKcC6x9b928D3/1g0fxg0e3I8xZg7H6tSwaY2DDow+fWyQCWZ5OYwq6TqdXbRQKwJCBrZn6B/sNQeM1Xc8m8Y9eizfFORQ0o2szboLDc/BVcxf0I1hqvGTNmosw8mK+Qc2ZqDYFKQSjIIY/phf9kJHkNBxDGoL5othcQri8F3WFGlWfa/xFjaTHK+c1VpwMjbyDan+Bn68GJs7AI+0Ef3rfI/jTOx/Cnbvm0U3pMqnvPuK1a/4GBX3pVEy66+LO9XeQfycRg6czyLVh/g2TcIJLOGowl8YybN4MywExvLFXCc7HP/7x32tp6utRgzLElB+Vxj4rqQTdzEeXttJjhsyz/PzgngfxJz/chjv2Jeh4DYSuwoL5hRrzWMBU+8tezbI+Sob3hsammkrBSJT3qdoM+PZ4DDNeRjl0HzQCSa8yWKkIU9txmz9pzsNzaNERBD4qnZA2QDfBpiGo3z2LzXiHSZKOJvsCfW79ZK55wzUTsWS1V2PSqD6+T0kkWR+e2c87djlLkAphUGgh5aNF5aMJSfRFaroLfaoEXm+4C5ZCDK0mer0aNs/Z2LXI6w0q2DDpYcLt8tbpMyhzrYqJZewyrxIyoeaNtBDCMo2JCmbiy0mB1mJKsLPr42s7eP4o4aOiumG+W8pjrdpkGjZHE3IlNR/kmOviylUBLl6lJyABpphZurwsLgLvptg4SRicdgSh0kh53+mnNPwGfc4q6naIsShCysroy997Av/x5p146pAyaLnwkx9G6lIVRPRb5mgI84vc04E3MYF9IeVzO6bhsPBHNpy8r7ZOeJpBOaXk1kxBIQmER1i858Q2HaQjB610XK1WDEmYOI561dj73U/vwp//7R348x88hXvaTfSd9RROAeZ7C+glHbhUa41MwUe8r6SB2KmgL/eqxLJidIlANsZa1/GHtSGlNWuSg0dm8eXv/ACf+9ETeOCAh06smn6ZYC6Mf4r/Jg2ReSldhRSBGtoWu8gPHMTCrp3A1DgwPkm3pYUKDb1S8YxxOAkJgaSgacCMlKZt5HR1ctP8fvyZRwS8JIeqIAv7RW+JCKFK4mpMYisN/MtPLuIP/m4rbtrcx564SrFTQ9MLUUMbmfbnvcWsoSMFJ43i/Z1iGEkiKHw4lTQbvptTiKr7L8Pju+fxV7c/jc/fsxuPHeE+foP7sGZdZhQi2mwUvMCUicS8gNevNRWJvsKRqQ76NIJeGxZryIwkEdlaSUiTg1EzyG1QO4P2Vx6YinIZie5FoNpfY4pM/qtrIaMy03wFvo9ebQJP9yv4zjML+IsHnsXXnpzDs3Qb7LxOtZNS6WRI6AEpKlTrJVRMQ0yJ5cTIEcGwIUf9/GbtfnrI9PLw4K45fPbOrfj0vQfw4GIDiaPly2iCxmqWDsboh9Z+PE54b7HuiyjrQ/r8VkXLk/O+wnmM7d+BK6Z9bGz0kYZziEO1zFeQeHX63fS9s0EXHe/fJhO4I9oPr6ekmZ/soMIksuJ1RiS7SG4NvyUJatbjO/ct4gskg7+5fz8epCCK7CnklQCWTQVkJVpekR8ylVhWjBQRHN+aa2bLTdrosz59YDbHJ27bjs/cswdPdmk0rHFUUXp5l7XMMhrK0PjFC+btcIP/0xprfNX2rP2cGGNOiPPtEO+Y9PDxt16A91+5DmdMMvszppQmn7hIMp8kwBszjVpSBimNRSsQHsuXkYEaTAMtjMprN4FTRQOoGjhFCFYekgBtRBaf34EQn35oH/7kvv24Y97CLPNFsyDbCYkjCU1baYnlxcgQwYldOpY63z0b21hW/tXn7sJn7j+Cg5iGXanS755Hi2ogZgHUcOElhYycBl/EBQy2zVYBvdO/JFKXB6+Nvn+yeBDj6Rx+6Q3n4z/99rvxrk3AP7p+A37zxjfgwnVN+NECcGA/zBqGVa0hQLXDQ2Me66grdBShm1YviroHI7kFVC+eh4baAqgQHLpC+aH9JszYakxgR2USn902i9/9y1tx77MxFhcDpD0LXeZfNJrtoacURoIITiQBve9RCTzSbeBj/+YvcPfWQ/Qna/wmoyvaQeDSbWBNYgriwCCXA0MyMFZxwmXYTpdklWAsWcT1G1bhD3/n1/BPPvQWjFWBJm93Ay39netd/NYbpvG2tRbq9hzsLILn0udmTQsalc4Zj2qIroKqerxmn8qlSeLyqyaGqz0fYrGtWQ19BJUmKlWqopTuQo9kR5dna9LCv/zcHfjEvYfxZNxEEqi7tMRyY9njCI4ngeO3n9izgF/707uxuxOhT+M3Y+RVTVI6h5TTmaN1/3qUoOKyk8NnPxWl8JJ0nNEB2hjegoiArssvXXM5fvd9b8frT6+ArjFsl561JbcnxiRfp6s5xmsB+nQPDnZTdPo0fLURaHo0Ep5mUYKlSURHC5r/wXNjJLyPXJM/2DToSovuwBhJUAvDaSgzn5VWUNXiiopWVMyE3cDhYBybD89hP1XQJF2KcyZq0GCwk4MMEc+pOIJvUHk4VFmOq9GRiiPQNYXIM70OnteIQcFmEcvFmOfiilU+LjohjkCepC77NRFHoLahfk7fmTWg7kcDgYqY/ITbNh7cG+PPf7ANm/fOoWPRD1XD4CCoxuSUYvz5ogcq7hCBvFjin5eXeN6cDyHPeB0pazVeY8DrcfmdlaRmyXCP1+lzW4U/zzwWeAuew/00RUrY5nGpWTbwndMRPn7dBvzD687ApacDNea0z2t3Bo9RAU5aVeiMygKu39TAR667AG85awrTLvOkT+LjDcqgkIs9Ap5XcyCI/NT6zo+jBLbHz3munH54bmkWnufezqubWEBTqpaUhKWhnSbsmm5A1ud3xdRlCTTHIXeOFS/h0M3RwxbRZdjTyfDdXSH+I12+/3L/YRIhRQN3VcCRiTESccTKh45aWUAPESE/1+mkkTSHrI7h/6Pcq/Pq4lQ5yLO0soC5nQ3eK+f5DHOWI32ng0YsFdfFax3MuGUSvzJtRCbTj3t/krEsRKCHR1Pic1Pwb8F45hZ5s20a0b3b5/C3D+0mAaqvWTMCsYZxKoYkjBVokA/3LSbGOnm3oDOqrOpnTG3Bwp1pOjO+6r1nQm9pwLwmTXluusv4XkJYFbnGH0zYEa6/+DR89MpN+PCbziUJNCiSSSxZVyuOkwioZvigZbgm2pHKZlXdwRs3BfiFi9fjnWeO49x6ihpJJdPKQ26LtqMcUmHmCUhGumNXYyh6NA/NsKQZghTxuIRQuUw04kqttsowEQHVSxZ1SVgkg6KZtLBaKgFFJBYBfcyzRBGXNvbHAW7Zl+ETD+zH5+7cisf3Z2ZeExN9bcK3BR43KPrHF//jt9WVeZTwCWNMhgBk/DqZfli5xm3zmTDYf6SSLvE4ElDiR8+9++O3Tx5OnhW9ArDomL51mpTJAD1IY2k0jL2z83h6114cbKsOWGLwOpT5ippzNNKOuRPR8dVYAU1PpiHPGSVs6vmo0jf2nQQalacW/yyvYnp8HD974TT+1bs24S3XXIrVq1eb8wiuW8hRQYOgRC6pXUforKIP7Wg5UvzMJg8fvHQV3nZmjUohgqOlyNWLoMY4mwTAzZSWpcFO1YA5SOXgs+at8jo8XfgKxfYjffyfN2/DVx/ciad2UwV2+eyVV1SCsS03w6EojqjONC8iqZ95Jy3m8ZGY2x6UoaPDp0u8YixLrsk0FEhiDEMkzWQkHmvJnYfm8PSe/TRAs+uSwmUhyqlLE8l7FThT2zJRhWQ0vpA1XpSGNOoci2FIxV5HGrKGY2k8fVUNv3DlWfjfPvIWXLs6x1SjYkhABi9oANQQqr30ubw+RdyLFit5H6udNt68zsJ7LyQZnLsaZzb424cPFqxJSa05EKQAsjgy6y6MryaJLMzCCTskguJ3ViIir4ad9Y344sN78YkfPIbbdy7iQOSZJRdMXZGQcHl7llRCQh+fz0FJ23JHlC02CdnMNSHVVOIVY1mIoGBxs2WS2Fy9bRqsNtvpYbZH46qpl2Bp4crVkD3FpAFeiyPJLTIwsk3MxLpJBqe+curcfpufsXBetdbBv3zn2fjX778AG3nZVr2FhHI+YQEW2R2vBgS9FxGolV0PoDIwdM252PBTXH3mFD5w9Sa853VrcUZVkYiLJBIbiSY7UZ61Jrm/ayZe8apUFb0IYdeYzcoEMz3NIuzEBG7a38S/+rtt+Mx9u3GI+aOsCZhJnQ5VFMuIJfeMbpFDgtasyYULocAzmMlUe321QJV4pRgNHcWnaCjhqK0YllhypDReNcZBXXhUB7EMT/3kYgfW7r7vwXZc9NRKToluxwfxK1euxb9498V4/+vGKe9ZQ5HlNBWapRBjHmMmSNW5qTK6lLx6HZJDheeoadLTlL+j9QT9Jn+7YUTImRPABy6Zwv/01rNw/uoGrEWFJ1Mya9pxv04yWIWky2Or4+QkTcRyNPNWHjTSsn3QmHM7H8Oj6Qz+4qE5/Ie/fQJ37+rSKXBRrwbme7WvmGKrF7pptlw2wriXms2a+VrilWNZiMCoNzVu6ZVJmyr8eoTNWoBWxac8WHpmNyHNLEyWccZp/INFUdWnr16DpN1B1JW/7mBdpY//5caL8DtvWoef2VjHREXHsDTSyEVoZmrzAQkIMv7j32vbdzTAmOdTo6PtG384VOs/vx9nfrxuwsLPv24VPvLG1+GiyUpBNCHJQI2EUi5UBmqkzMxKRCvYAHTtCqLScG1P8j/Dlm4FX99p4T/cvBU33b8biykVERVarMZZqqFU3Qey/kHtoclmlL2uSLzEK8ayEIHKcNGCrAfJi5Dh6JXfrBsfwxnTk5R9knxLC3kA1sAQodl4KN8d30fAK9MCqA4l+LiV4rK1FfzmOy/DP7j2LLzhtCaaGkBDdlM4baRuLzWVs2BK/iupTUBEoHaCIRkYV8GUXP6eGiaZETzKJMHnVdScBGtqNn7uXB8fvvIsXLmmiqm8QzKgu9BZKDJOGWgueCVDecG8yRJWBiQ5j7nAe9u9CHx/Rx9fePAAPnvPLmw5Qg7k3jGzLbF85q1uvEg581m5YbKkxCvGshCBTEXLaZrnyAdnSF3bLAjrJ8dw7oa1mKovQxANa3+zQpG5KL7ScANKzTQM4cQp1o5P4C3nrMM/uWoN/tFbz+e1Numz1njtLne3TS+e+s/jXBOisHCekEQCIgAlvaewZ6EOkFINqOvSZY3v0dBdBUoZSlDHkY3zSTQfuGgK77nkDFw8XTOBSmb9hn6b36odYoUzAfPi6NRudMUCq08PS0OVu+g5Pm4/4OCP713AN+55Bk8920GbQi13mUOSlsPGQZ2D/wfvSrxCLAsRCCq6mWGA4UXokxyTTQevO20al54+zfc0GjK9naX03QvGL/YeJPnugwLwoklHyrAl9/X+xNKicxAmuo1GJbfT8p2ipT9O6BIsYP14HW95/fn42DuvxMfefCYmeQ4KerTVZOVpGXFeq7q4fBsdE0FXdEEOuw+HXYZDiAxk6gqi0asM2uMZNSKvGF/AfSmZNduPRvStIy/eeMkM3nPZGTi7laNq003od5B1+3SVHdPmYMDz8ddNsnhfulXVkkaB6DZfTlpi6NJcLTfHZ5RkNsJOF5V0ERNBCN+OMY86dsTr8ZnbNuPLP3wID26bxxHyRKp2FVOGeKyemW6aMHdNUtFXUniCGcTGpKCizKg+HTeKUBmxWSR5fYNyOXiaxaZ5PfnXviwhxiqyihO0hw/J/OFfFnxtnznp4py1TfzVvfvgRAvw40UWCGaRW+FDpNFROBtZrcgzZpJq8WH2vGDSmHk1sC1QTmuSUSbLUsFjRhsD4SsNNteP5H14WQ91fu/ScJNeiFV+gn/+/mvx22/biEtndKxvXBlehbkuUwB1LyyYGjNYUSOhKaAFZITHNxwOoVm+Aiblh44rzqgROFJDA8Pm9+1AE4dGWO11cDndkvNXt7Bv935s2UtVUJ1G5k+Ywm1l1FkknICWrxkOtC6jukQ9P+C98hN1zbwM9SBK09UvVdJfXX9BQvyEbkLCPOhnelW+qsF2HrO1dbjnQIZnth0kUdi4YGPLdOr0qKJSm4bOc9CJQz91sfNQgu8e4NGKSiWZWCxDtaTP7TYW/Bk+W5KCMbQTr2Y5E2EiMmto8hlePp3jkulirgqXJKayrsJmVGWx90nDyM5ZqFbiK85fiz07tmEflXDHG0OmePakq0dtak2trmMy5iWzRSEpCerjDUTteeRRCE0qaqYf56GNiUlEXZ437homTqwaQhY0uzuPS8Zi/Lvf/gXccOFqtGif+iWRwFJBPyV68BTI5FQQkdRqY3Vs3LSJnlSKXfsOIMypCAIaOxVSrsVWdExFMwjbiFkzavZhzd9oTvYyrt2oh1FEJ0Q9cOkuAJsP7MMTO4/g/LPWYZz5EvCmHfAZ2lrazsLBno2vPttHEkllRMybFBWSocZ6hNY4HH5WROyNDszj4TOUNmyxHrhi2hoQAauFXI3nVIjGvXxZj/EVYWSJoEKGP7PWwfq1M5glkR9YCNFXfL2ke0ZfWkE+pmFOZPDi2SJZaCdtKuwOajUqCmamWNZ2fWiu/nCRNasa8mgwFPTGhZhp+Pil6y/Bb7z99bhqfRXTfk7ZLhIQKw9OvCSgiE2ofKiWtLpzwt9Wv/oUb2NVPUAUhphf7GC+o7BeUmJFislCzLzS3RiYAf85bEUjmoaZF8eoEkGLEkrDzueobA4mHubSCrZvW2RZqWCq7qNeEbHHCJlJh3oWvvjkPF0yqjRmmJ5zwGebs+zEWUM5yVwqiWCI0Z3FWE1peRdrJ8exaqJloukOzy5gvssC7lZNi7GEoxls8xLZYvxDFgCbCkL7p6Zm8CkmXKSaAyCmb+6TFFKeM2rj8g1N/MPrL8KNl52OyzbWUOMxjh6EGQEm332Ju6gkF8l5um6pEQ21sMMu1lAZTE1O0n1p4/BCFws0AM+le+Ww8BS2XyRljxoKyAtqXX8pjCoROFRkIck/10AsbxyLfRs7Dh7GviOHeG8ZFVsVNV+zPdk4Evn4/OYjvJcaXE2ySiXlkhAtjWK1GvxclUhJBEOMLBHIuLVyTsBa4IzJOiaqLiIa7IGFPhZ6ufF5bU+t7YPehxcFa0P6/H61iV6fBUmNTBrIpBamKKIfadEzzzHhZrh64zg+fO15eP+VZ+C0Woqqy4ynEZlAI0X/6QnIRVky8AdJWGpo9HUPGnOQRkjp1mgW4ZkxB6sqGtZk4Ug/Q39xwegAv94oFiSRC6RGUDVImDEL+vbFMapEEFMlqhdFEaA+XTc1wPZp0M8ePoQDcz0qxhq86jj8pocFugdfe6ZH4qRC8mVMFhwTMMbP3Cbf61wlEQwxskSgHoUeDVYNQJrWak2rhtX08dXFuHP/ISzGrM39SeP70eEfHPXCUMHWijuJeuctGrGtxjjHZLpLX7FJOTnT8PDm06r4xzdeg7dfNoMmM95LukV4MAufZLY0iFSEWSZtiaCiqvEIgQKU1G0oZaNi4DcR80VTIZ497mN8Yhy91MHCob3o93sIqjVKZBZ2KQATpMEdNePwywi4Gdk2Aj1mumZ5HFIFLaJeVZAW3aDcxZ7ZGM/MWphNXboIKdqpj9sP8fuMTgAJXLNZaZFqz1aDYZ2nKongeIwsEZgb5Z8+5a5mBPZoyDMNB2dP1zBGZ/2hbXtY8AtiKDrgfjI0eMj1AiSUz2hM8gMaQ0yPm27ApNXHxjrws1dfiP/xZ8/HxRtarEktTbaLWpWEkbbpo3fpY/qYpwl2cws1Z3DiJcJirN4FdaGyEIv0qJET3oOGZFhhhCDrYGqsilWr6MawoGjCj30HDiLnNWs2FFPgqQwszQb0Msr+qBJBNafy0dqSirBskdijDmrMAzem7G/O0B3w8OiuPTi8fzd6SRXPZE0qh2IcQ8Ybp/PHe+uhmyh6lBkxYrepyymJ4AToRl0+K8lbdQ+6FutjZkaVD3DtmimcvWkTtj61GQta8ISq4cWgcN9a1YdTZy16+AhP2mNN0ccqu4fLZqr4zfdei/ddtQmnN2hslN0ZlYi6GKMohq+xrpLWJKOUD8HhT0lPLBWKwqH2iZSXQUN2ayzSgQmJqPBaquo/U3sJa73VNQ9rp8fMte46cBh9ujOZ2kFk/DxRrU7/WW0iL4FRJQK7l1Dp0ImrVUwbUU7XMWyHqNZaLAM5EhUYlocdOw+xArExW59Eg2rSdmIakNw78iFVVZhXzSMdtdssnnVJBM8H79aHlt+U4YYUcx6ioAGPBWG6YuPcehtb5hLs66ik/2RocpGoO29kcq5BDWEHkxULN1xyFn71XVfjzWdPYsbrQxOgyIg8+qLyuvUAErdiphlXO0SN/iXrYl7XUjYWyiHp8K+LrlNhXUjjZr54lMeuuRbX5JBDcnPTOdSCKiZnJuBPnYFnD85j/2EtC+/AZ56J2MxNvQRGlQg04pB2gqxPEkhoKZrBiWU3tBMKnjYaodpHmCvN00wgWr85gTESu0siSJiDahjOHSqo5nQxpPlowM5oQLleEsFPgskd0TdzhrWbGazDz5qujQ2TdVjV9YhCG+3ZOfSp5yvNcRq0zwpUQSgxArP2YM6a0UNGv7KKPi5b28QHrjgbv/iG83HVaTVM8tRmNhvjSxcZbX6aSkNqRM1rJpnPSSQvoUBOLoqLsRSsxGvRL/Nyjdtv2ip0LXwZRtYpcKlJlbCe0nmcaqa7OIu5bgd9ElpORaFAGk0jGKS8T54t1YnU9klitewMFS23JmNTjMZS4WXbo+ZxkBLQlg4aJI0QTakc9R0zIWMeeL6LWkM1v2UiQKmneH9MfHXlGooIzPGjAxMJaojA5TN8ASKgDej+TlEiOEYCxxuCxwJcq9awZlxRWDb68wdxZI5ymJrZIhEo1t/4xZSMyrgspYT0U7xx4zTeTwJ47+Vn49L1Pmo6mXJaVT63i9pQv6nowOL3lEykoDG6JTSQIXj/x9+7SEljG4YkID6Q4YrsHN53wFqwwXzQuI1Ws4H5boSdB+doIBVmHF0kSgpXIayS09LLDo3Co4no837K7NC5luE+XwoydL3q1rmlbmFLQWFqEOX9yEVMuY+bJfDpBrXqdKNYTsx0dzxIK0lpqjKFqw/ONFJQydM9xScoAl2p6b7m0z91ieAlMM5CvLaWgXzATIzQ7bZNxqlrSUNV5VdPBh4uqCd463mn4xevfT1uuGg9ThvXqsQiCRlBRr+xb4JOZHArEUVYMNWLugxlML0QdboDM2ur8P3VmDt0BJ3FRXTdcROUlMqfpqTONdloHNOgFCtRoQ9dpUEVJDFqeM4l/aTLIxGKtP1qBdW6wostw/OyHkPmum2+jt7d6RnqHrWa8/Ndg1ebCKwtW7bk69evH7xdgegomMRGWp3Azr6FH2zej5vvewJbdh9EQvlbqzVw/swk3n/RGlx41mlYTc5TfL+ZapiZq2nRc40wpBF5/CdjWomQoFGJsSWTTTehmjR99Fmxz7NQPbIX+POb7sDXDjf4HXfWGu0UoXYvgtPL4dmsPWst9KimzNTxmoVpxCDpf9SCzXaRNJJz4C/wuWZmfEVjYgyTq6d5r1IEchmodkgKuRQDy8soagK5BnYWo4sa1lO8/eaFNj56oaav4ZPUStnQdOZShyURPA+5WTIrR8yCnzCHFPsn70+Q6lUwoKbVn5IfLF2tbNXkHlK+nmRXji5rUdevkgZc0sDJzuKlQbsfG1k8VuWNSi53Oyw9lEmu4i/Jl8yLnSxL/+8vb8WDRw7gUMwaRo2jVh01soUVpgjJkEmdGZMzw6QsRgwlEbx6RLAyq7/jEKtP3WOuMXckHX3WiFN8xDPMvtXRItZkc5gKaBRugl5vnkewgGulES3SaRRAFVVNGR7LAMwpVyS8ioeUfv7hRd6jOjXqAUmShJf2ZAtoMJ1JMfB7bz8Tv3LeFE6vkxUz7miPIaqsQhTUmGNUAckBHsPjSpxSWPFE4KYJgiyhOSeo08+vaRixdIHCgVVLqK+NL2odt2okDcc1wTiaB08RaWqMlHIIMr2ebJ5dOuhBelQ4Lu+xxzzJNfMR1UFiZaw8FWob8x77uGJVjg9dtBbvv+AMXDjZhB32kHQWkGjpMqMGmHeaOq3EKYUVTwSmPZgy14pNDzt9XRq95jvMHdaQDcrdFvpW1UxE6toVGj9lcpQgpETMBg1JCk4cwbaxV4Y8NUFFVfWYUOd0ExKA/H2P70l2mgHJsXm37gIuXlvDB163Hu87awqXtGL4OMzvutxV/lOd51rKOIkSo4AVTwRwPBZ0zeKrBgAmE0mn2X8UmkwDoFy2XBteRN8wJWnI9ZVSkCtBAWCIgPogU/iuebcy4SQJ75FGzXvzFTORasgua3huW2aQFLdJDLGfIaikuHw18IFzx/GB81t4/Rp6S/kC4p56HKa4L8mgxCmFFU8EGnijYaepxhLIObZ8+EHVKAU1HGnIrnoJHD8wDWCB46ARBOZVhq/uQ5c7ZJTOo9d89PJRxDzwRjWUmndfodHr4crZUWyEmZnZctB163QXqI54vxevJRlcvhbvvWQNTq9RQXToFsSaz0CKYEiKaj7lmXleRevpfGYEo9LIw9w9id9cdbE9fNVnetwjlJjDZnM5sOKJQEVWkYaaMkytwkV3gCIQPTOrj9YbNM9fG4GModhDdaRMRctk6CxupUlj0fYKhUYVajl1zV3Ie1QktW5Zd2SyxbCChbGMd54qs3rMgAVsmkjwS3QTPnbJObhiNZVAcoTfH+aBGtyjg1oI7Al43Qx+L2Qe86N6jRKiZtyppUwvD7xZKSGTBtvmM1348HM6kRnJP9Pr6KRc7VnLBOVOiVME8ojMCm1qO9DIRI1GSkOsa9l4z1Wr8JE3bcLbNtpUSySEcBWqnofpehv97jZY03WEE1OI+1QKBw8i6KsHpsRrBSURnGLQqLsi2s41IblyoXw7xekV4N3n+PjNN83gmjUtM+S3Sp6Ynz0Iq2EhjBZ5YKIVaArXqqOJY0u8VlASwSkENY4aaS8hQLmcSRUoAlFDnOMQG+sZrt9Uw69dswHvPKtBV2AeUewiT8gScj3iLtCdR5ImSDWFe4nXDEoiOJUg3yBPTPRa0VviI9VEgGZYtfzTFGNVG+8638FHr6jh6tM00Qm/C0kEWc0IAoUv93l8TxOhlnjNoCSCUw2axluBEyQFkYFsW+Mt4JMU4NHIHTSdBVx/do6PveUs3LChhhl+7SykPKYB1MaBQOsQqzGxxGsFJRGcalC3n3wEigNBOkCbCq/oc6OXe+hlGepOFzds8vGHv3wRbpjqY5XClROHLkKTRKDwbI2GK/FaQUkEpxJEAJYGrmgAth6+NEAOJ6E66PThpim0qLPnjsOyW/DzEGc2QvzBb1+Oj147jg3WLmD/dmA+4XcTxTlLvCZQEsEphoxPPLG1/JoDTXVmachx3oXnJQhsTYSqJd+4X+pTHdTMUuQtL8aHrmvhH187hivXefCSCqJwzeCMJV4LKIngVANFASt9Js28oOAjr4gpUOSlq+nj1a1IV4ElQz0MFcSoZR2cN1bBey/bhF+6YgOune6g2X6cWqLG/W3+7XO/LhwnRe5QY6Qu8swxwV6K7CwaKU9CyjTClGnwaoKEyGzmvRhOATn8nHsa6FXRojpUf4YrVJvZq/i/mBpsaZIuNXUV+p4h1YS8WQ6PeedKpdEV05J0uiU7tFFPMwTVGFm9iHX1Scyp04DmaUwtNfSqZefkgpdX4lSCHvgwKXTYEIF6BpQ0JZzmxdOOLJSeJWmQwUosBNxv4/QYrrtgPW68aBJvXJeaeR38XNOFU2WwFCeaIyBlIVUwH90M8wW/Nyc8CYmXxFcZ+/BVnzANCODoe31N4zMMoH35p3gpiMB8rk8GL0uR9JJZOWzH1lyy/CAjYdL4mUekMdiuC9f3SQwVdLIIjUqOMV9B48w/KzTzLhZZqfUY1KJzclESQYnnwaahOJoHUDDzRWphGK0vBKxf5eLaS8/Ge9/0OrxhOoPXX0A/9hBbLVV5QNRFgDYqTg9JGiJV6S1BBaBl9zSFKvPMlWtG4iQJKGnSFFsrdpOM7aCGfXTVJrjP6cx3rdHYs8woGsNxdqbJc8QkJxclEZR4HrQmlJkqnXWPloeLLJ81UlFUmiyDZ08D77pkDf6Ht56PDfYiPBm7wpK9Bg/JEXVmYdZb5TlMDVzCzDrt5CnSuE+Jr2X2aM7yvUgImlkqjBJ0en10jLCJsL7i4zQxbxLT8dJYWn7O3R26B3ZaEkGJJYBNE9ZsuoIiEBPHQUhe0GSwLmuwZpbgtCDBjedW8Pu/9i5c3AoRdPbD0+im2gRybxzzPCCoBnA1+qlEQQTMV82VEdO4h0QgpyWVKiBhauLcvXEHMxUP57YCjKmX1qiIFBFTxqyUt1a4QCcXJRGUeGHQn80Hsl6m7LF28l3LjEuwWCwt1lMNq4/r19n43993MW7c6KK2uIdswSJVX8s0jViTvwxdjFMcmRnglcP3PLOeZpzGCGPNM0lDV5Yxg5uBjyg5iHdPtHDuBI+p8UDbRSvXMj+pCeMw0uBVQEkEJZ4PtWZZrL9Y86imUiGRSj1at6ul27wmqMWHcO16C79+7Rn42fMmUA9njXuAbowsJpmUPGDASp9JKqBimvp6/b70AYnBIblSFfTaCOcPYUOtj5+daWFjC4hNxlMWxEGh0uSuvUpkUBJBieeBDgAys2q0Vnkyy52YZBt3gaVQPQ38PtdMxyyYdTvCFac18JFrNuEDF6/CZHc3OULTxasHoixiQk5SzdQjQ5KNqAxiMqQaDTVFhtbbzPtts07ju9aN4bLVFqZo/woC7yuDcw8NvlPbjdpjX40sLZ9SiedB5q7mKUUaOOryyjU+gYU1Y0FkgY5JFCGJoGt7SIIxFlYWVDfHdZuq+I03nY73nhlgQ0UdXq9SqV2JIKnmlPmZlJby1fPhUQ1kCd2DqItW1cfFZ63HL21ai5lxkoTT4V5JMaJDCqBbEEFIQtCsXCcb5VMq8TwoHECpwGCDcl//JFBFFFL8jldDV0HKQRM2C3gtDXHFGhf//OevwJtOq2NtoJGOOhkpgWrCzhPTVaZaUa/6QoVbjWEvB/I4dA3HoA+OXV/xetz23xvFHRsRxKTtYVIbivmeNXvCpHzRKkTm/vid+v8diyZvWveKpLbUnPkkuZ97VUQ8RRr3MOGnuPKMMXzgCuC6GcCrMT+YV9Rk5shEVppo7giRtP6dfKz8lY5KLCOKVnAtvMoSzvd0JFjz9Vli97eBm751C/7bEzXs7AcYdxepJBJ06uvIIA0W7DaseBb1vEej8bCIZnHKF4Gl/rPC/phkhMVrEbikNwSJR3M0NsdbmFyzGlr7UAvgmK43XqfcGY+vw+jCF0NmGji4v1pKec4ojE0EoM5jzsVzaHbsDi2z4tfhKTqT96j1JIKshyqzRe5Ah6exKPs1dVzPbmIhq6Md52iy1r90PMLPnW7h58/wcHqDF+Rr+UHl5dKiJIISPzVMzZTGrPkGBZcfRLS43CcZ8O3e+Qxff/AwvnTPDjyydwFojMOtUvCqJ0FLUplGyQgBXY/QfumZk5eaCMwCulpJm+c0a2kqWpIYEoG6AM17uklR0uG5O3D0Q3YLC64SoGVjZkh2cejgUKiFWhcwVu/g6rV1vOO0CVw17WODppq0Y3T7bUwxj8wajUuMkghK/FSQDakVQAEyinpzZdQ0mJDGkjgeLNaiGqi851CMm5+YxRcePoL7dy6gUpMx9hCx5svzwbyJNBZoMdqXwFITgeS/yEAYBkbptViaPTfRgVqmP07mUPOa8Nya4bduEpp1NqqZh75VxxGLSkHTwdUSvGGVi7dtsHDJZBfrGzEqjlwGnxqARJjaWoZiWVASQYmfChLNkSyJvqyWYlfSQBrjQbOmzG2PAoH+Mu1751yGW7Ys4Ms/3ol7d8zDooRWpZf7DUQW3YRY2nmuOPGLYKmJwLQFMA1rfx2jAUNSBtpWzW1W0CaRRXSLcseFx/sOdFjYRxR1UQkqVABNXLLGw5UzOc5o2Th/HJgJ+jxOq0rp0n3EVtVwooaBL70eKImgxE8JGXyXBuCjmAA1TzSkWUZjwZLRGDNSE1oFSZLRTejjh9u7+OTdB/Dw7k4hu4Mq2pTR6mZEdmhw5p+MJSeCvLgL39fCoxaiOCER8D65rXNJEeg0WmY+5jWY3gDbh2d5vOsU014Pl00Br592cNUaB2eNW9ASm5nrMN9cuCIMDfXk+dQgKAVFz2lZiIA/W6LEK4eksYxf1qRuRjrTxuxph8Yo9a4Yx0jDyyNsbOZ430XT+Kc3nIdLZypoVqtGLfhxm98v6JQjB96SUQLGUEkgcRSZSEmRgO97cLScPt9HieZwsFDLXAQ8qFnL8Lq1Fj56fgO/eUkTv3y+i3OnFVYcomJr8Lamg7HRU+K5xQUuXaOaRZfipdjpVUKpCEr8VFBtGWUhXEf+LY1lQABmI1M3YRE6q5pXlOBYlND6ynLx/d3Av/3mFjx+JEEWLiJsH0Cv9dJlcMkbC80xxbYIQGMC1CbgskYXwjBCt9vF2vHVOBR2aN5dXD7l4YObWnj72SS7Spc/oVkfKqbxVDU+OQKe+FN5QyGk+QlcDenSPJIJL8hXo+nSa4KSCEr8lJAVqWjLKJQKmWzKMF/TNELCZPsOwoz6gNXemFmhtov5sI475hz8P7dswx2PPIGU1jZfXc0DXxzL1Vio3Ry6AY7j8rjMdBkOXQR1LfZTF+/c4OMXz7Rw1eoeWlqG36aVp3XW9lUzopC7muXplWM6n4YR+HFM46csEkMG4H5UFdxQKNdSoySCEj8d1Meuac40oYlCX1iWVabV4OWZwfNCgkUpAdZ6NboILr/T+AMFHy3kLu7Ym+HT9+3D1x7ag1RLtb0ElqONIM1i3hevXQ2BMvowRL/XMwOH1q6dwaaNDv7Z6gTrGzZaNdvEDih4yk37putRDKBowmIUIa9TodtqE1EYFb9WlKAmVxqafoVp6WmAv1kSQYmfDizFLNxGPyvpLZPsSz2Jggq0akC9ejICQiEEirDTMXOsEJ88FONrjx7Bf7zjMKo2hXLUNSeI3YAGpEkNdOKYhpfS47DJPzyYH5kfGhqzDP3oNhOPb7bqGJ+YQFD1zGrYRorzKxPDQES0QBGD8fP5ZcTfsWn4ugY7p/HHIWt9GS6vnHK9nweIoxAtO8J54xmuXuvgqrUezhzLcdZYYHoPTC8Jz60KXuMyLCszSsDkgIjTXAEzR+sv8v71Tu0D5pKLvYy2Wg6URFBi2fHkXI7/8+4+brvnARzpZ0iCFkIN0KEEl/E4FW33yTtqZxDp0HSGhi8MGYgwLzTK8YlxjI+14A/648wEX7RQTamm9v1Mg/s1I5Bjm5raofHnJImEv6vTmd/lyRQhnMYpaiSTM1bV8Lo1Pq6gF3PJBHBWpQsvX2Q1voq/sVwmfHJQEkGJZYdUw07++c9ffRi3bI+wO6qhq9iCqENJTreiVsdCR8NvWLvL4F6MCIzksDE5vcqQgeM5RgXIPZCYyChH5BZob0VEqmdDC+prRia5Nj3TsKcp330T7DNl97Da7eGiiRQ/c/Y4Lp6pYFVVNT4vT64Qz9MSp6g6X8EoiaDE8oO1MdIODrrj+L/+dge++dgh7Jgvamc1HYRdNb5J3ldeBhHINHM0xsfRmpxCUCuWis/kqxsyoHwnMfTDLg04Rs3TaEoPizFdhDTDuKUxAZp2xUeL7vwbZoB3XNLE1dPAao0F7B2h1fBa/HH07Sq0FOw408rWAyURlBgB5GmErD8Pp9ZE26rgz773JL5w/wE80WkiymnIaQjf1ZAlm/b+4q6BvHRbMylVKqiOTaDabJEIPMRSBYOWft9zsd47hENZHYdyqgZW52NpF+n8HEK6Aa9f18B7zx/DdWfZWFfn4TyvZmt24zavgIpD/aJUDFIoffJOQFeEp13RKImgxLJDjWZyD7SGQhT2cDCu4tubZ/HZu3bhnt0p0hp9cK29EM/DSqkeXowIrByub6M2No56axKWF5gp0zQlmIYEV0gClcDHbJTASXqwkhhx7pM46jh/ysfPnRbj2rUWNjRdjHkaOr2IPLEQabyAXxHTUDnQtYh71AwJPP4WbDOnmPn9lYqSCEosO0QEGqwTszb26AKo9f1gO8F92+bwN/fvwXe3xug4a7kHiSAnZbwIEciD8KoexugWVJrjdAXU+JfDoQH7dkbDDxF1FxFVx0kOOcbdBOdNurjujDouW+9iA216mpzTyCj6ua+xfJcf2AGvUTMMmZ8xv635FTLuE/hVElBJBCVK/L0gQw0pvWN1qxGS4mrEm+umuGvbIr704BF87+k2Fmi4uVrlXoQIPN9FbaKOWn0MLmt5MxGIZD1r7yCPYUVtJL1FrJ5Zh9OmGjhvlYdLKDheN5FjpprCzTSsujBq9fiZXgq6AiakWvqf51OjY6r33EfrNlTpGqxsGiiJoMQIQMYU0X83AT9poQoUmhvSCOfpCTy4I8Lf/vA+fGO/h30Ra+cXIYJqvYKx1VMkDJfeRBW2o65H1uxhF3UrwpqxCtZPj+HKqRwXzVRw1iSwiqrfE0kkfZgl4/2ArkDNnN5Pi1PrGl3FI5AEFF2oCUrECwo5VgfkSof1zDPP5OvWrRu8LVFi6SE7jmhYXtyF4/GN5VEdVNGjoamqTbvA3m1P4/cfsHHnrgjz7T566l5UVCMN0aJhqv3Op1qoNGqoTU3x+5hf+6gGDip0J+pZFxsaNt5w9jpcfRHwBu5fpUowbCLj1wgoElFmVfipYg34ll95qcZKWCYGyEzCRKj2lwNDZ6Y4zqoOPl25KImgxIrBnfuBb967iO/9eAs2H+ojqq8Bag2W4hSs6DHd9ODVqpi1SSL9RWTxHFY3Evr+ddywqYXr1lRwrtcHerM8brpogCxhUBJBiRWDLI1wsJvi0SMxfrS7i1t2LODBwxFiry6fwPjyCHtAfwEXjdXw7nWTeNdpY/T/YYgiYVpgzU6BAS3qXtLAMZREUGLFIOuyJqcr0LPrONizsWs+M699S+0J5AAqfPUOTNZCjPke1tdtrKZq13qNNhW8mXLQ5T7yKLg5UPolCGvr1q352rXqmilRYrQR0iVX96CMOItTWHlujDnLSAZxYtoaPIUke7GZLlwjGmX7/Bg2nX6XRKEuP42KNJMD6mQlDGxFWpUosRKQsSbXVF9KuRPCcTtwqh14tTYqjR4qrQiVJs3etWBRArh5DE+zLEcR7CSm3YsNeLDaBlZ4v//JhskNM4SzRIkRh9rvc9bmNmjYA1LI6OlHVh2RO4ae08CcVcWi10DfDmjsOV2CNpz4CIlgnvuGSOk79F3bxAKUOAZr+/bt+dTUlJlooUSJUUaY9I2a91SbazYP1WPmlaDaZ6VvuhxDtRuycqvQ6MkXg17+4XSqRXegx0+XYyagUYW1Y8eOvF6vQ6lEiZHGwL3XcOGEBm35NGVZuoE+SaAFwWKauo8KvMiDq0aCAUIrQd9fRG5HaGASrqGJEoL17LPP5pqnfWZmZvBRiRKjiTyJaOKs2zVrkG2ZAJ80zlE1i4RE5IJQkUncoQLU6Bpob7ULGBUg5UDVm9tGB5RNBM+FrRBJNRhGkcZ/lSgxwtBwXyatnaB1BFWfB9T9xRJh6gWo8sOaCRE2li4/gq8ab6BBQbZJ/Ei7l3gOTK+ByGB+fn7wUYkSowlNSqKJT1WZK8n3d41ly+DVGzAYKlywQ/EZ6UItApqLyEAkUBLB83BUEWjeds3RXqJEiVMPRxXBUBXEmmu9RIkSpxSMIhgmDQM9ePAghss/lyhR4tSAUQTHqwKRwf79+0tlUKLEKQTa/jFFMExDZdDpaI7WEiVKvNbxnDaCIQkMX9VmsG/fPoSh5m4rUaLEaxXW3Nxcrh6DYVL7wInvNRZB22NjY6hUKiYcWQRSokSJlQnZtKZ37/f7psK3FhYWnkMEL5aGhGAmcjwhDU9+/GuJEiWWD8PK+vjXE5PUv9lut9s/kQhk0Cdu6/WFknDi60vh5e5XokSJY5DhvhwM9zv+9YWSIYNOp0N7PGbwJxr9ia/DbWH4fpiOx4nvS5QosXSQgR+PE41fOKoGLAv/f6hBXCjtYsjsAAAAAElFTkSuQmCC;" parent="1" vertex="1">
          <mxGeometry x="-110" y="1100" width="67.3" height="60" as="geometry" />
        </mxCell>
        <mxCell id="fQr-KQXvRKtP9xT1wymy-28" style="edgeStyle=orthogonalEdgeStyle;rounded=0;orthogonalLoop=1;jettySize=auto;html=1;entryX=0;entryY=0.5;entryDx=0;entryDy=0;" parent="1" source="fQr-KQXvRKtP9xT1wymy-25" target="fQr-KQXvRKtP9xT1wymy-27" edge="1">
          <mxGeometry relative="1" as="geometry">
            <Array as="points">
              <mxPoint x="50" y="1000" />
            </Array>
          </mxGeometry>
        </mxCell>
        <mxCell id="fQr-KQXvRKtP9xT1wymy-25" value="&lt;b&gt;Staging area&lt;/b&gt;" style="rounded=0;whiteSpace=wrap;html=1;fillColor=#dae8fc;strokeColor=#6c8ebf;" parent="1" vertex="1">
          <mxGeometry x="-5.009999999999991" y="1040" width="120" height="60" as="geometry" />
        </mxCell>
        <mxCell id="fQr-KQXvRKtP9xT1wymy-32" style="edgeStyle=orthogonalEdgeStyle;rounded=0;orthogonalLoop=1;jettySize=auto;html=1;entryX=0;entryY=0.5;entryDx=0;entryDy=0;" parent="1" source="fQr-KQXvRKtP9xT1wymy-27" target="fQr-KQXvRKtP9xT1wymy-31" edge="1">
          <mxGeometry relative="1" as="geometry">
            <Array as="points">
              <mxPoint x="190" y="890" />
            </Array>
          </mxGeometry>
        </mxCell>
        <mxCell id="fQr-KQXvRKtP9xT1wymy-27" value="&lt;b&gt;Local Repo&lt;/b&gt;" style="rounded=0;whiteSpace=wrap;html=1;fillColor=#d5e8d4;strokeColor=#82b366;" parent="1" vertex="1">
          <mxGeometry x="130" y="970" width="120" height="60" as="geometry" />
        </mxCell>
        <mxCell id="fQr-KQXvRKtP9xT1wymy-29" value="&lt;b&gt;commit&lt;/b&gt;" style="text;html=1;align=center;verticalAlign=middle;resizable=0;points=[];autosize=1;strokeColor=none;fillColor=none;" parent="1" vertex="1">
          <mxGeometry x="155" y="1030" width="70" height="30" as="geometry" />
        </mxCell>
        <mxCell id="fQr-KQXvRKtP9xT1wymy-37" style="edgeStyle=orthogonalEdgeStyle;rounded=0;orthogonalLoop=1;jettySize=auto;html=1;entryX=0.5;entryY=0;entryDx=0;entryDy=0;" parent="1" source="fQr-KQXvRKtP9xT1wymy-31" target="fQr-KQXvRKtP9xT1wymy-36" edge="1">
          <mxGeometry relative="1" as="geometry" />
        </mxCell>
        <mxCell id="fQr-KQXvRKtP9xT1wymy-31" value="&lt;b&gt;Remote Repo&lt;/b&gt;" style="rounded=0;whiteSpace=wrap;html=1;fillColor=#f8cecc;strokeColor=#b85450;" parent="1" vertex="1">
          <mxGeometry x="300" y="860" width="120" height="60" as="geometry" />
        </mxCell>
        <mxCell id="fQr-KQXvRKtP9xT1wymy-33" value="&lt;b&gt;Push&lt;/b&gt;" style="text;html=1;align=center;verticalAlign=middle;resizable=0;points=[];autosize=1;strokeColor=none;fillColor=none;" parent="1" vertex="1">
          <mxGeometry x="220" y="860" width="50" height="30" as="geometry" />
        </mxCell>
        <mxCell id="fQr-KQXvRKtP9xT1wymy-34" value="&lt;b&gt;Work Space&lt;/b&gt;" style="text;html=1;align=center;verticalAlign=middle;resizable=0;points=[];autosize=1;strokeColor=none;fillColor=none;" parent="1" vertex="1">
          <mxGeometry x="-121.35000000000002" y="1160" width="90" height="30" as="geometry" />
        </mxCell>
        <mxCell id="fQr-KQXvRKtP9xT1wymy-35" value="&lt;b&gt;adding&lt;/b&gt;" style="text;html=1;align=center;verticalAlign=middle;resizable=0;points=[];autosize=1;strokeColor=none;fillColor=none;" parent="1" vertex="1">
          <mxGeometry x="20" y="1100" width="60" height="30" as="geometry" />
        </mxCell>
        <mxCell id="fQr-KQXvRKtP9xT1wymy-36" value="&lt;b&gt;Linux&lt;/b&gt;" style="rounded=0;whiteSpace=wrap;html=1;fillColor=#d5e8d4;gradientColor=#97d077;strokeColor=#82b366;" parent="1" vertex="1">
          <mxGeometry x="540" y="990" width="250" height="195" as="geometry" />
        </mxCell>
        <mxCell id="fQr-KQXvRKtP9xT1wymy-38" value="&lt;b&gt;Clone&lt;/b&gt;" style="text;html=1;align=center;verticalAlign=middle;resizable=0;points=[];autosize=1;strokeColor=none;fillColor=none;" parent="1" vertex="1">
          <mxGeometry x="500" y="890" width="60" height="30" as="geometry" />
        </mxCell>
        <mxCell id="fQr-KQXvRKtP9xT1wymy-39" value="" style="sketch=0;aspect=fixed;pointerEvents=1;shadow=0;dashed=0;html=1;strokeColor=none;labelPosition=center;verticalLabelPosition=bottom;verticalAlign=top;align=center;fillColor=#00188D;shape=mxgraph.azure.laptop" parent="1" vertex="1">
          <mxGeometry x="350" y="1050" width="133.33" height="80" as="geometry" />
        </mxCell>
        <mxCell id="fQr-KQXvRKtP9xT1wymy-40" style="edgeStyle=orthogonalEdgeStyle;rounded=0;orthogonalLoop=1;jettySize=auto;html=1;entryX=0.5;entryY=0;entryDx=0;entryDy=0;entryPerimeter=0;" parent="1" source="fQr-KQXvRKtP9xT1wymy-31" target="fQr-KQXvRKtP9xT1wymy-39" edge="1">
          <mxGeometry relative="1" as="geometry" />
        </mxCell>
        <mxCell id="fQr-KQXvRKtP9xT1wymy-41" value="&lt;b&gt;Clone&lt;/b&gt;" style="text;html=1;align=center;verticalAlign=middle;resizable=0;points=[];autosize=1;strokeColor=none;fillColor=none;" parent="1" vertex="1">
          <mxGeometry x="365" y="960" width="60" height="30" as="geometry" />
        </mxCell>
        <mxCell id="V5_YjpYSE6Z6Hyf_9cGd-1" value="&lt;b&gt;pull&lt;/b&gt;" style="text;html=1;align=center;verticalAlign=middle;resizable=0;points=[];autosize=1;strokeColor=none;fillColor=none;" vertex="1" parent="1">
          <mxGeometry x="510" y="918" width="40" height="30" as="geometry" />
        </mxCell>
      </root>
    </mxGraphModel>
  </diagram>
</mxfile>
